<svg xmlns="http://www.w3.org/2000/svg" width="129" height="36" fill="none" viewBox="0 0 129 36"><rect width="128.448" height="36" fill="#353333" rx="18"/><path fill="#fff" d="M36.051 18.497a3.56 3.56 0 0 1 1.683-2.984 3.6 3.6 0 0 0-2.85-1.55c-1.2-.128-2.362.721-2.973.721-.623 0-1.564-.71-2.577-.688a3.8 3.8 0 0 0-1.853.556 3.8 3.8 0 0 0-1.34 1.404c-1.382 2.407-.352 5.944.971 7.89.662.952 1.436 2.017 2.448 1.979.99-.042 1.36-.636 2.556-.636 1.185 0 1.532.636 2.565.612 1.062-.018 1.732-.957 2.37-1.919a7.9 7.9 0 0 0 1.085-2.223 3.4 3.4 0 0 1-1.515-1.265 3.45 3.45 0 0 1-.57-1.897M34.1 12.683c.58-.7.865-1.6.796-2.51a3.53 3.53 0 0 0-2.291 1.194 3.34 3.34 0 0 0-.817 2.416 2.91 2.91 0 0 0 2.312-1.1M46.263 23l3.607-8.765h1.001L54.453 23H52.9l-2.805-7.1h.526l-2.83 7.1zm1.779-1.69v-1.253h4.645v1.253zm10.695 1.815q-.69 0-1.227-.288a2.3 2.3 0 0 1-.852-.814q-.3-.513-.3-1.164V19.13q0-.651.313-1.165t.851-.801q.54-.3 1.215-.3.813 0 1.465.425a2.9 2.9 0 0 1 1.04 1.127q.387.701.387 1.59 0 .877-.388 1.59-.375.702-1.04 1.115a2.7 2.7 0 0 1-1.464.413m-3.218 2.38V16.99h1.377v1.615l-.238 1.465.238 1.452v3.982zm2.992-3.682q.502 0 .877-.225.389-.238.601-.652.225-.412.225-.951t-.225-.952a1.53 1.53 0 0 0-.601-.639 1.6 1.6 0 0 0-.876-.237q-.5 0-.89.237-.388.225-.6.64a2.05 2.05 0 0 0-.213.95q0 .54.212.952.214.414.601.652.39.225.89.225m7.49 1.302q-.69 0-1.228-.288a2.3 2.3 0 0 1-.851-.814q-.3-.513-.3-1.164V19.13q0-.651.312-1.165.313-.514.852-.801.539-.3 1.214-.3.814 0 1.466.425a2.9 2.9 0 0 1 1.039 1.127q.387.701.388 1.59 0 .877-.388 1.59-.375.702-1.04 1.115a2.7 2.7 0 0 1-1.465.413m-3.219 2.38V16.99h1.378v1.615l-.238 1.465.238 1.452v3.982zm2.993-3.682q.5 0 .877-.225.388-.238.6-.652.226-.412.226-.951t-.225-.952a1.53 1.53 0 0 0-.601-.639 1.6 1.6 0 0 0-.877-.237q-.5 0-.889.237-.389.225-.601.64a2.05 2.05 0 0 0-.213.95q0 .54.213.952.213.414.601.652.388.225.889.225m9.407 1.302q-1.04 0-1.765-.375a4 4 0 0 1-1.303-1.102l.977-.977q.363.526.864.826.501.288 1.277.288.726 0 1.152-.3a.95.95 0 0 0 .439-.827q0-.438-.226-.713a1.7 1.7 0 0 0-.6-.451 5 5 0 0 0-.815-.326q-.438-.15-.889-.325a4 4 0 0 1-.814-.463 2.1 2.1 0 0 1-.588-.714q-.226-.438-.226-1.115 0-.775.376-1.314a2.46 2.46 0 0 1 1.04-.84 3.55 3.55 0 0 1 1.452-.287q.864 0 1.54.338.689.337 1.114.864l-.976.976a2.6 2.6 0 0 0-.79-.626 1.95 1.95 0 0 0-.926-.213q-.651 0-1.026.263-.364.263-.364.74 0 .4.226.65.225.239.588.413.376.163.814.313.45.15.89.339.45.188.813.488.375.288.601.751.226.464.226 1.165 0 1.176-.84 1.865-.825.69-2.24.69M80.425 23v-8.515h1.377V23zm-1.44-4.758V16.99h4.257v1.252zm7.841 4.883a3.1 3.1 0 0 1-1.59-.413 3.24 3.24 0 0 1-1.14-1.14 3.1 3.1 0 0 1-.413-1.59q0-.876.414-1.578a3.2 3.2 0 0 1 1.14-1.114 3.05 3.05 0 0 1 1.59-.426 3.14 3.14 0 0 1 1.602.414q.714.412 1.127 1.127.426.7.426 1.577 0 .878-.426 1.59a3.14 3.14 0 0 1-1.127 1.14 3.14 3.14 0 0 1-1.603.413m0-1.327q.514 0 .902-.225a1.6 1.6 0 0 0 .614-.652 1.93 1.93 0 0 0 .225-.939q0-.526-.225-.926a1.64 1.64 0 0 0-.614-.626 1.7 1.7 0 0 0-.902-.238q-.5 0-.901.238-.388.224-.614.626a1.95 1.95 0 0 0-.213.926q0 .526.213.94.225.413.614.65.401.225.901.226M91.127 23v-6.01h1.378V23zm1.378-3.343-.476-.238q0-1.14.5-1.84.514-.715 1.54-.715.453 0 .815.163.363.163.676.526l-.901.927a.95.95 0 0 0-.364-.25 1.3 1.3 0 0 0-.463-.076q-.576 0-.952.363-.375.363-.375 1.14m6.33 3.468a3.3 3.3 0 0 1-1.627-.4 3.14 3.14 0 0 1-1.14-1.127 3.14 3.14 0 0 1-.413-1.603q0-.89.413-1.59a3.07 3.07 0 0 1 1.115-1.127 3.1 3.1 0 0 1 1.577-.414q.84 0 1.478.389.651.387 1.014 1.064.376.675.376 1.54 0 .15-.025.313a3 3 0 0 1-.05.338h-4.934v-1.127h4.22l-.514.451q-.024-.55-.212-.927a1.34 1.34 0 0 0-.539-.576q-.338-.2-.839-.2-.525 0-.914.226-.389.225-.6.638-.214.401-.214.964 0 .564.226.99.225.425.638.663.414.225.952.226.464 0 .851-.163.4-.163.677-.476l.876.889a2.8 2.8 0 0 1-1.064.776q-.627.263-1.328.263"/></svg>