<svg xmlns="http://www.w3.org/2000/svg" width="66" height="66" fill="none" viewBox="0 0 66 66"><rect width="66" height="66" fill="url(#a)" rx="5"/><path fill="#fff" stroke="#fff" stroke-width=".5" d="M56.438 15H10.562a.57.57 0 0 0-.397.16.55.55 0 0 0-.165.388v34.904a.54.54 0 0 0 .165.388.56.56 0 0 0 .397.16h45.876a.57.57 0 0 0 .397-.16.55.55 0 0 0 .165-.388V15.548a.54.54 0 0 0-.165-.388.56.56 0 0 0-.397-.16Zm-.562 1.096v6.376H11.124v-6.376zM11.124 49.904V23.568h44.754v26.336zm40.368-28.846c.36 0 .711-.104 1.01-.299s.533-.472.67-.796c.138-.325.174-.681.104-1.026a1.76 1.76 0 0 0-.498-.908 1.83 1.83 0 0 0-.931-.486 1.86 1.86 0 0 0-1.052.1 1.8 1.8 0 0 0-.816.655c-.2.292-.307.635-.307.986 0 .47.193.922.535 1.255.341.333.804.52 1.287.52zm0-2.453c.137 0 .272.04.386.114s.204.181.256.305a.66.66 0 0 1-.15.74.7.7 0 0 1-.759.146.7.7 0 0 1-.312-.25.67.67 0 0 1 .088-.857.7.7 0 0 1 .493-.198zm-5.8 2.453c.36 0 .712-.104 1.012-.299.299-.195.532-.472.67-.796.137-.325.173-.681.103-1.026a1.76 1.76 0 0 0-.498-.908 1.84 1.84 0 0 0-.931-.486 1.86 1.86 0 0 0-1.051.1 1.8 1.8 0 0 0-.817.655c-.2.292-.307.635-.307.986.001.47.193.921.534 1.254s.804.52 1.286.52Zm0-2.453c.138 0 .273.04.387.114a.7.7 0 0 1 .257.305.66.66 0 0 1-.151.74.7.7 0 0 1-.758.146.7.7 0 0 1-.312-.25.666.666 0 0 1 .086-.856.7.7 0 0 1 .492-.199Zm-5.801 2.453c.36 0 .712-.104 1.01-.298.3-.195.533-.473.671-.797s.174-.681.104-1.025a1.76 1.76 0 0 0-.498-.91 1.83 1.83 0 0 0-.931-.485 1.86 1.86 0 0 0-1.052.1 1.8 1.8 0 0 0-.816.655 1.74 1.74 0 0 0 .226 2.24c.341.333.804.52 1.286.52Zm0-2.453c.138 0 .272.04.386.114a.7.7 0 0 1 .257.305.66.66 0 0 1-.151.74.7.7 0 0 1-.758.146.7.7 0 0 1-.312-.25.67.67 0 0 1 .086-.856.7.7 0 0 1 .492-.199Zm11.083 6.81c-.347 0-.687.087-.988.255a1.97 1.97 0 0 0-.728.7 1.9 1.9 0 0 0-.028 1.927l-3.04 2.992a2.03 2.03 0 0 0-2.298.297l-2.271-1.305c.078-.301.08-.617.008-.92a1.9 1.9 0 0 0-.427-.82 2 2 0 0 0-.766-.538 2.04 2.04 0 0 0-1.825.168 1.96 1.96 0 0 0-.65.667 1.9 1.9 0 0 0-.076 1.787l-2.693 2.305a2.04 2.04 0 0 0-1.37-.283c-.476.07-.91.304-1.224.66a1.92 1.92 0 0 0-.48 1.282c.002.47.179.923.496 1.276a2.04 2.04 0 0 0 2.598.347c.403-.256.698-.646.83-1.098a1.9 1.9 0 0 0-.11-1.36l2.694-2.305a2.02 2.02 0 0 0 2.424-.224l2.274 1.305c-.08.308-.08.63-.003.937s.23.593.446.83c.217.236.489.418.793.528a2.04 2.04 0 0 0 1.849-.238c.264-.183.48-.427.625-.71a1.9 1.9 0 0 0-.04-1.819l3.034-2.99a2.03 2.03 0 0 0 2.468-.455c.196-.226.336-.492.41-.78a1.9 1.9 0 0 0-.36-1.67 2 2 0 0 0-.697-.551 2 2 0 0 0-.875-.197ZM34.127 35.417a.9.9 0 0 1-.483-.142.85.85 0 0 1-.32-.38.83.83 0 0 1 .188-.925.89.89 0 0 1 .947-.184.87.87 0 0 1 .39.313.83.83 0 0 1-.108 1.07.88.88 0 0 1-.614.248Zm5.563-4.76a.9.9 0 0 1-.483-.143.85.85 0 0 1-.32-.38.83.83 0 0 1 .188-.924.89.89 0 0 1 .947-.184.87.87 0 0 1 .39.312.83.83 0 0 1-.108 1.07.88.88 0 0 1-.614.249Zm5.564 3.194a.9.9 0 0 1-.483-.143.85.85 0 0 1-.32-.38.83.83 0 0 1 .188-.925.89.89 0 0 1 .947-.183.86.86 0 0 1 .39.313.83.83 0 0 1-.109 1.069.88.88 0 0 1-.613.249Zm5.72-5.646a.9.9 0 0 1-.483-.142.85.85 0 0 1-.32-.381.83.83 0 0 1 .188-.924.89.89 0 0 1 .947-.183.87.87 0 0 1 .39.312.83.83 0 0 1-.108 1.07.88.88 0 0 1-.614.248Zm-30.229 11.53a6.86 6.86 0 0 0 3.746-1.107 6.6 6.6 0 0 0 2.482-2.951 6.43 6.43 0 0 0 .384-3.8 6.53 6.53 0 0 0-1.845-3.366 6.8 6.8 0 0 0-3.451-1.8 6.9 6.9 0 0 0-3.895.375 6.7 6.7 0 0 0-3.025 2.422 6.46 6.46 0 0 0-1.136 3.653 6.5 6.5 0 0 0 1.976 4.647 6.84 6.84 0 0 0 4.764 1.928Zm3.28-2.13-2.307-3.896h4.616a5.4 5.4 0 0 1-.726 2.19 5.5 5.5 0 0 1-1.584 1.706Zm2.31-4.992h-5.028v-4.904a5.7 5.7 0 0 1 3.408 1.58 5.44 5.44 0 0 1 1.62 3.324Zm-6.152-4.904v5.45q0 .034.005.067v.017q.002.024.01.05l.004.016.021.06v.002q.014.03.03.059v.005l2.794 4.72a5.74 5.74 0 0 1-4.716-.044 5.6 5.6 0 0 1-1.909-1.443 5.4 5.4 0 0 1-1.11-2.092 5.35 5.35 0 0 1-.108-2.353c.14-.783.451-1.526.915-2.18a5.6 5.6 0 0 1 1.769-1.603 5.7 5.7 0 0 1 2.295-.731Zm8.651 14.722H13.342a.57.57 0 0 0-.397.16.55.55 0 0 0-.165.387v2.786c0 .145.06.285.165.387a.57.57 0 0 0 .397.16h15.492a.57.57 0 0 0 .398-.16.55.55 0 0 0 .164-.387v-2.786a.54.54 0 0 0-.165-.387.57.57 0 0 0-.397-.16Zm-.561 2.785H13.906v-1.69h14.367zm24.693-6.028a.54.54 0 0 1-.164.388.56.56 0 0 1-.398.16H32.696a.57.57 0 0 1-.397-.16.54.54 0 0 1 0-.775.57.57 0 0 1 .397-.16h19.708a.57.57 0 0 1 .398.16.55.55 0 0 1 .164.387Zm0 5.261a.54.54 0 0 1-.165.387.57.57 0 0 1-.397.16H32.696a.57.57 0 0 1-.386-.166.54.54 0 0 1 0-.763.57.57 0 0 1 .386-.166h19.708a.57.57 0 0 1 .398.16.55.55 0 0 1 .164.388Z"/><defs><linearGradient id="a" x1="33" x2="33" y1="0" y2="66" gradientUnits="userSpaceOnUse"><stop stop-color="#ffaf09"/><stop offset="1" stop-color="#f02820"/></linearGradient></defs></svg>