<svg xmlns="http://www.w3.org/2000/svg" width="66" height="66" fill="none" viewBox="0 0 66 66"><rect width="66" height="66" fill="url(#a)" rx="5"/><path fill="#fff" fill-rule="evenodd" stroke="#fff" d="M38.629 7c-5.772 0-10.501 4.517-10.501 10.117 0 5.597 4.728 10.123 10.5 10.123 5.774 0 10.502-4.524 10.502-10.123C49.13 11.52 44.402 7 38.63 7Zm0 1.603c4.938 0 8.893 3.82 8.893 8.514s-3.956 8.52-8.893 8.52-8.893-3.828-8.893-8.52c0-4.695 3.955-8.514 8.893-8.514Zm14.275 16.415a4.05 4.05 0 0 0-2.9 1.23l-6.399 6.594a4.2 4.2 0 0 0-.297-1.096c-.623-1.477-2.079-2.52-3.763-2.52h-9.397a8.72 8.72 0 0 0-6.196 2.587l-4.769 4.814a3.16 3.16 0 0 0-3.838.503l-5.423 5.478a3.23 3.23 0 0 0 0 4.52l10.273 10.377a3.154 3.154 0 0 0 4.477 0l5.422-5.478a3.24 3.24 0 0 0 .495-3.88l3.803-3.84h4.29c3.388 0 6.63-1.372 8.99-3.802l8.136-8.372a4.237 4.237 0 0 0 0-5.892 4.05 4.05 0 0 0-2.904-1.223Zm0 1.607c.632 0 1.26.24 1.75.743a2.62 2.62 0 0 1 0 3.644l-8.133 8.377a10.93 10.93 0 0 1-7.839 3.311h-4.628a.8.8 0 0 0-.57.237l-3.952 3.995-1.942-1.96-7.2-7.274 4.71-4.756a7.1 7.1 0 0 1 5.049-2.107h9.397c1.025 0 1.894.625 2.28 1.537a2.65 2.65 0 0 1 .083 1.827 2.6 2.6 0 0 1-.576.98l-.006.013v-.004l-.045.053-.015.004a2.43 2.43 0 0 1-1.72.72h-7.522a.804.804 0 0 0-.807.8.803.803 0 0 0 .807.8h8.89a.82.82 0 0 0 .58-.243l.897-.924.013-.006.002-.011.032-.036.051-.047.007-.007 1.163-1.2 7.493-7.725a2.42 2.42 0 0 1 1.75-.743zM17.586 37.796a1.54 1.54 0 0 1 1.097.46l.005.006 10.277 10.377.006.006c.624.63.62 1.61-.006 2.24l-5.423 5.477a1.53 1.53 0 0 1-2.211 0L11.058 45.985a1.567 1.567 0 0 1 0-2.233l5.422-5.477a1.55 1.55 0 0 1 1.108-.474z" clip-rule="evenodd"/><path fill="#fff" d="M38.818 22.224q-1.283-.006-2.208-.632-.92-.626-1.417-1.814-.492-1.188-.487-2.859 0-1.665.492-2.839.498-1.173 1.417-1.784.924-.617 2.203-.617 1.277 0 2.197.617.924.615 1.422 1.79.496 1.168.492 2.833 0 1.676-.497 2.864-.492 1.188-1.412 1.814t-2.203.627m0-1.785q.875 0 1.397-.88.521-.88.516-2.64 0-1.158-.238-1.929-.234-.771-.666-1.158a1.45 1.45 0 0 0-1.01-.388q-.87 0-1.392.87t-.527 2.605q0 1.173.234 1.959.24.78.671 1.173a1.47 1.47 0 0 0 1.015.388"/><defs><linearGradient id="a" x1="33" x2="33" y1="0" y2="66" gradientUnits="userSpaceOnUse"><stop stop-color="#ffaf09"/><stop offset="1" stop-color="#f02820"/></linearGradient></defs></svg>