<svg xmlns="http://www.w3.org/2000/svg" width="159" height="115" fill="none" viewBox="0 0 159 115"><g clip-path="url(#a)"><path fill="#f9b716" d="M107.91 60.957c16.952 0 30.695-13.645 30.695-30.478S124.862 0 107.91 0C90.957 0 77.215 13.646 77.215 30.479s13.742 30.478 30.695 30.478"/><path fill="#e9262a" d="m30.869 45.57.13-.655.104-.672.084-.683.047-.7.01-.711-.01-.7-.047-.694-.085-.683-.102-.665-.131-.644-.17-.637-.2-.626-.215-.61-.096-.224-.16-.366-.272-.57-.302-.553-.33-.542-.357-.525-.376-.496-.404-.485-.425-.469-.45-.44-.472-.422-.5-.401-.517-.373-.536-.356-.563-.337-.574-.31-.603-.289-.62-.26-.642-.233-.517-.158-.142-.046-.67-.186-.698-.159-.705-.123-.727-.102-.744-.074-.752-.045-.772-.011H0v43.131h9.676V55.95h6.685l.773-.01.751-.047.745-.073.726-.095.705-.13.699-.148.67-.187.659-.204.642-.232.62-.254.602-.281.575-.31.563-.327.535-.356.518-.373.5-.394.471-.422.45-.44.425-.468.405-.476.375-.503.358-.514.33-.542.301-.552.273-.581.149-.355.103-.233.216-.609.198-.626.17-.644zm-9.34-2.664-.113.665-.178.616-.255.57-.319.531-.376.475-.432.44-.5.373-.546.328-.592.281-.648.215-.688.158-.734.095-.762.029H9.747V36.669h5.64l.761.039.734.095.688.148.648.214.592.271.546.317.5.384.432.44.376.485.32.532.254.58.178.638.113.672.039.721zm64.891 9.32-.517-.514-.5-.525-.489-.531-.471-.542-.461-.56-.45-.57-.432-.58-.426-.588-.415-.599-.386-.608-.386-.627-.365-.626-.348-.637-5.291 12.705-7.408-16.19H57.65l12.813 26.164-6.929 15.694h9.8l13.604-30.37zM58.387 70.65l-.085-.746-.075-.915-.046-.915-.01-.13-.029-1.151V51.958l-.01-.57-.04-.61-.056-.608-.096-.598-.113-.588-.142-.58-.17-.56-.096-.282-.102-.271-.227-.542-.256-.531-.283-.504-.32-.496-.346-.475-.376-.458-.415-.44-.443-.422-.471-.401-.518-.373-.546-.345-.584-.327-.614-.3-.648-.27-.699-.243-.726-.215-.773-.187-.8-.147-.848-.124-.886-.095-.922-.045-.96-.018-.978.018-.933.066-.893.113-.858.158-.818.187-.773.225-.744.26-.699.29-.67.316-.63.355-.585.374-.557.394-.517.422-.49.44-.443.458-.414.468-.387.475-.34.496-.312.496-.283.504-.245.513-.216.504-.177.514-.15.503-.113.503-.085.496-.056.486 8.088 1.637.085-.61.17-.598.245-.58.33-.542.397-.504.478-.447.546-.394.63-.316.699-.243.78-.148.847-.056.932.056.819.158.716.243.613.338.5.394.386.468.284.504.17.552.056.58-.067.588-.234.514-.414.43-.62.327-.866.204-7.173 1.095-.706.123-.698.148-.677.186-.649.215-.641.243-.614.281-.584.31-.557.338-.528.373-.5.401-.46.43-.433.468-.386.496-.358.531-.312.56-.273.588-.216.626-.177.655-.132.683-.085.721-.017.746.017.627.068.616.102.608.15.599.198.588.227.57.273.552.319.542.347.514.397.486.432.475.472.44.507.412.535.383.585.356.62.317.648.281.688.243.727.204.751.158.79.124.82.067.857.028.847-.028.819-.074.78-.124.744-.169.705-.214.677-.26.631-.3.603-.338.556-.383.529-.412.478-.44.443-.475.404-.503.358-.532.029 1.123.067.897.085.672.074.458.057.253h8.39l-.046-.288-.075-.532zm-9.311-11.04-.04.953-.123.852-.199.767-.262.672-.32.588-.386.503-.425.43-.471.355-.507.3-.535.224-.557.17-.574.123-.585.067-.592.017-.893-.067-.751-.197-.631-.3-.5-.393-.376-.468-.262-.525-.149-.57-.046-.588.067-.739.199-.637.301-.542.415-.44.507-.355.584-.282.65-.204.704-.148 5.76-.908v1.338z"/><path fill="#fff" fill-rule="evenodd" d="M98.886 15.919h-7.39v33.326h7.39zm28.253 12.786c0 7.06-5.763 12.783-12.873 12.783-7.111 0-12.874-5.723-12.874-12.783s5.763-12.782 12.874-12.782c7.11 0 12.873 5.722 12.873 12.782" clip-rule="evenodd"/><path fill="#e9262a" d="m105.809 83.045-5.147-15.556h2.527l3.871 11.977h-.67l3.782-11.977h1.79l3.782 11.977h-.67l3.87-11.977h2.528l-5.147 15.556h-1.79l-3.803-11.955h.67l-3.803 11.955zm20.969.223q-1.568-.001-2.843-.746a5.6 5.6 0 0 1-2.023-2.01q-.751-1.266-.752-2.823.001-1.556.752-2.801a5.6 5.6 0 0 1 2.023-1.989q1.275-.745 2.843-.746c1.046 0 2.013.243 2.864.732a5.5 5.5 0 0 1 2.024 1.989q.75 1.256.751 2.812 0 1.556-.751 2.823a5.6 5.6 0 0 1-2.024 2.01q-1.275.744-2.864.745zm0-2.355q.916 0 1.623-.412a2.8 2.8 0 0 0 1.096-1.143q.392-.735.39-1.669-.001-.934-.401-1.643a3 3 0 0 0-1.095-1.123q-.695-.412-1.613-.412c-.918 0-1.131.138-1.598.412a2.86 2.86 0 0 0-1.096 1.123q-.393.71-.393 1.643 0 .935.393 1.669.394.733 1.096 1.143a3.1 3.1 0 0 0 1.598.412m7.673 2.133V72.378h2.464v10.668zm2.464-5.934-.851-.423q-.001-2.021.907-3.276.907-1.257 2.74-1.257.807-.001 1.453.289.65.289 1.209.933l-1.613 1.643a1.7 1.7 0 0 0-.648-.443 2.4 2.4 0 0 0-.83-.134q-1.03 0-1.701.644-.67.645-.67 2.024zm6.646 5.934v-16h2.463v16zm9.69.221a4.9 4.9 0 0 1-2.63-.732 5.2 5.2 0 0 1-1.857-1.988q-.685-1.256-.684-2.812c0-1.039.227-1.996.684-2.834a5.33 5.33 0 0 1 1.857-1.999 4.8 4.8 0 0 1 2.63-.746q1.23.002 2.184.521a4 4 0 0 1 1.51 1.432c.372.61.56 1.296.56 2.066v3.066q-.001 1.156-.55 2.066a3.9 3.9 0 0 1-1.51 1.432q-.96.522-2.194.521zm.404-2.312c.614 0 1.145-.137 1.603-.412a2.85 2.85 0 0 0 1.063-1.144q.379-.733.379-1.69 0-.955-.379-1.688a2.8 2.8 0 0 0-1.063-1.144c-.458-.275-.989-.412-1.603-.412-.613 0-1.123.137-1.577.412a2.93 2.93 0 0 0-1.074 1.144q-.393.734-.393 1.689t.393 1.69a2.9 2.9 0 0 0 1.074 1.143q.683.412 1.577.412m5.349 2.087h-2.463v-2.865l.425-2.6-.425-2.577v-7.954h2.463v16zM.836 112.869v-9.727h.932l.397 1.541v8.186zm6.777 0-6.015-7.961.17-1.766 6.03 7.961zm0 0-.397-1.443v-8.284h1.326v9.727h-.933zm6.068.138a3.46 3.46 0 0 1-1.765-.461 3.44 3.44 0 0 1-1.719-3.027c0-.654.156-1.224.465-1.745q.467-.778 1.254-1.243a3.43 3.43 0 0 1 1.765-.461c.65 0 1.255.152 1.787.454a3.4 3.4 0 0 1 1.262 1.239c.312.525.464 1.109.464 1.753s-.156 1.246-.464 1.774a3.44 3.44 0 0 1-1.262 1.253 3.5 3.5 0 0 1-1.787.461zm0-1.218q.65 0 1.145-.295t.776-.806q.283-.513.284-1.172c0-.44-.096-.813-.29-1.151a2.1 2.1 0 0 0-.777-.792 2.2 2.2 0 0 0-1.138-.288c-.432 0-.786.095-1.116.288a2.04 2.04 0 0 0-.776.792 2.3 2.3 0 0 0-.284 1.151c0 .433.096.83.284 1.172a2.1 2.1 0 0 0 1.892 1.101m8.079 1.081v-9.728h1.325v9.728zm.89 0v-1.151h2.963q.845 0 1.325-.496.48-.497.479-1.2 0-.476-.213-.855a1.6 1.6 0 0 0-.613-.609 1.9 1.9 0 0 0-.954-.233h-2.991v-1.15h2.796c.482 0 .858-.124 1.138-.37q.417-.37.418-1.073c0-.469-.145-.824-.44-1.074q-.434-.369-1.172-.369h-2.74v-1.151h2.782q.959 0 1.602.345c.43.228.752.531.975.904q.331.56.333 1.232-.002.786-.429 1.373-.431.59-1.261.925l.113-.422q.947.337 1.474 1.017.53.681.529 1.605 0 .772-.383 1.386-.382.617-1.096.989-.712.372-1.743.374h-2.893zm10.725.137a3.46 3.46 0 0 1-1.765-.461 3.45 3.45 0 0 1-1.255-1.253 3.45 3.45 0 0 1-.464-1.774c0-.654.156-1.224.464-1.745a3.5 3.5 0 0 1 1.255-1.243 3.43 3.43 0 0 1 1.765-.461 3.6 3.6 0 0 1 1.786.454q.799.456 1.262 1.239.466.787.464 1.753c0 .644-.156 1.246-.464 1.774a3.47 3.47 0 0 1-1.262 1.253 3.5 3.5 0 0 1-1.786.461zm0-1.218q.649 0 1.145-.295.495-.295.776-.806.282-.513.283-1.172c0-.44-.095-.813-.29-1.151a2.1 2.1 0 0 0-.776-.792 2.2 2.2 0 0 0-1.138-.288 2.11 2.11 0 0 0-1.893 1.08 2.3 2.3 0 0 0-.284 1.151c0 .433.096.83.284 1.172a2.1 2.1 0 0 0 1.893 1.101m4.93 1.081v-6.659h1.269v6.659zm1.269-3.783-.479-.226q.001-1.275.592-2.034.594-.756 1.708-.757.51.001.918.176.411.174.762.581l-.832.855a1.3 1.3 0 0 0-.465-.324 1.6 1.6 0 0 0-.592-.098q-.706 0-1.159.447-.452.449-.453 1.372zm7.001 3.92a3.1 3.1 0 0 1-1.652-.454 3.3 3.3 0 0 1-1.166-1.239q-.43-.786-.429-1.767 0-.981.429-1.767a3.34 3.34 0 0 1 1.166-1.246 3 3 0 0 1 1.652-.461q.761 0 1.368.317.605.316.982.869.374.554.418 1.281v2.007a2.53 2.53 0 0 1-.411 1.274q-.367.56-.975.876a2.94 2.94 0 0 1-1.382.317zm.212-1.193q.633 0 1.117-.296.48-.295.748-.806c.177-.341.27-.732.27-1.172s-.09-.845-.27-1.186a2.05 2.05 0 0 0-.748-.806 2.1 2.1 0 0 0-1.117-.296c-.425 0-.794.095-1.116.289q-.478.285-.755.799-.276.51-.276 1.186 0 .673.276 1.193.274.52.762.806c.326.19.695.289 1.11.289m3.332 1.052h-1.283v-1.795l.241-1.626-.24-1.612v-4.977h1.282zm4.954.141q-1.016 0-1.815-.454a3.44 3.44 0 0 1-1.265-1.239q-.467-.785-.465-1.781c.002-.996.153-1.242.457-1.767q.458-.785 1.245-1.239a3.45 3.45 0 0 1 1.758-.454c.61 0 1.159.141 1.637.423q.719.42 1.124 1.165.405.742.404 1.696a3 3 0 0 1-.071.662h-5.66v-1.053h4.983l-.464.409q-.001-.672-.241-1.144a1.75 1.75 0 0 0-.677-.729q-.437-.259-1.06-.26c-.415 0-.815.095-1.145.281a1.9 1.9 0 0 0-.762.785c-.18.338-.27.732-.27 1.193s.096.877.284 1.229q.283.526.805.813t1.198.288q.564-.001 1.038-.197.473-.196.812-.588l.819.827c-.33.373-.723.658-1.188.856a3.75 3.75 0 0 1-1.481.295zm4.461-.137v-6.659h1.27v6.659zm1.27-3.783-.48-.226q.002-1.275.592-2.034c.398-.503.965-.757 1.709-.757q.51.001.918.176.41.174.762.581l-.833.855a1.3 1.3 0 0 0-.464-.324 1.6 1.6 0 0 0-.592-.098q-.707 0-1.16.447-.452.449-.453 1.372zm6.384 3.92q-.564 0-1.074-.147a3.4 3.4 0 0 1-.925-.423 3.2 3.2 0 0 1-.727-.651l.819-.813q.367.449.847.665.479.218 1.074.219.594.001.918-.205a.63.63 0 0 0 .326-.566.68.68 0 0 0-.262-.567 2.3 2.3 0 0 0-.67-.338 21 21 0 0 0-.869-.26 4.6 4.6 0 0 1-.868-.338 1.8 1.8 0 0 1-.67-.581q-.262-.37-.262-.975-.001-.601.29-1.045.288-.443.826-.679.538-.24 1.283-.24.792 0 1.404.275.61.273 1.01.82l-.819.813a2.04 2.04 0 0 0-.705-.56 2.15 2.15 0 0 0-.932-.197q-.553.001-.84.197-.289.196-.29.518c0 .214.084.398.254.517q.256.181.67.31l.869.26q.451.132.86.359c.274.148.497.352.67.602q.262.38.263.996 0 .941-.67 1.485-.672.547-1.8.546zm3.965 1.405.876-1.668.454-.113a.7.7 0 0 1-.185.253.38.38 0 0 1-.255.099.74.74 0 0 1-.542-.247.83.83 0 0 1-.248-.608q-.001-.406.269-.68a.9.9 0 0 1 .677-.274q.367 0 .648.274a.9.9 0 0 1 .284.68q0 .152-.064.373a3 3 0 0 1-.248.566l-.946 1.739zm8.372-1.405q-.845.001-1.488-.331a3.1 3.1 0 0 1-1.067-.89l.946-.856q.265.391.67.602a1.9 1.9 0 0 0 .897.211q.494 0 .875-.211.382-.211.6-.623c.144-.274.219-.616.219-1.017v-6.757h1.326v6.687c0 .644-.132 1.203-.387 1.682a2.84 2.84 0 0 1-1.06 1.109q-.67.395-1.53.394m7.648-.028q-.835 0-1.49-.359a2.56 2.56 0 0 1-1.023-1.018c-.245-.44-.369-.946-.369-1.527v-3.868h1.272v3.812q0 .547.192.946c.127.268.312.468.556.609q.367.211.862.211.75.002 1.173-.468.425-.47.425-1.295v-3.811h1.269v3.867q0 .87-.369 1.528a2.56 2.56 0 0 1-1.017 1.017 3 3 0 0 1-1.481.359zm6.707.028q-.564 0-1.074-.147a3.4 3.4 0 0 1-.925-.423 3.2 3.2 0 0 1-.727-.651l.819-.813q.368.449.847.665.48.218 1.074.219t.918-.205a.63.63 0 0 0 .326-.566.68.68 0 0 0-.262-.567 2.3 2.3 0 0 0-.67-.338 21 21 0 0 0-.868-.26 4.6 4.6 0 0 1-.869-.338 1.8 1.8 0 0 1-.67-.581q-.26-.37-.262-.975 0-.601.29-1.045.289-.443.827-.679.537-.24 1.283-.24.792 0 1.403.275.612.273 1.01.82l-.818.813a2.04 2.04 0 0 0-.706-.56 2.15 2.15 0 0 0-.932-.197q-.552.001-.84.197t-.29.518c0 .214.084.398.255.517q.255.181.67.31l.868.26q.452.132.861.359c.273.148.496.352.67.602q.262.38.262.996 0 .941-.67 1.485c-.446.366-1.049.546-1.8.546zm3.274-5.649v-1.151h4.573v1.151zm1.652 5.508v-9.446h1.269v9.446zm7.313.004v-9.728h1.326v9.728zm.89 0v-1.151h2.963q.846 0 1.326-.496.478-.497.478-1.2 0-.476-.213-.855a1.57 1.57 0 0 0-.613-.609 1.9 1.9 0 0 0-.953-.233h-2.992v-1.15h2.793c.482 0 .858-.124 1.138-.37.276-.246.418-.605.418-1.073 0-.469-.145-.824-.439-1.074q-.436-.369-1.17-.369h-2.74v-1.151h2.783q.958 0 1.602.345.641.343.974.904t.334 1.232c0 .524-.146.982-.429 1.373q-.432.59-1.262.925l.113-.422q.948.337 1.475 1.017.53.681.528 1.605 0 .772-.383 1.386-.383.617-1.095.989t-1.744.374h-2.892zm10.392.109q-.834 0-1.489-.359a2.57 2.57 0 0 1-1.024-1.018c-.244-.44-.369-.946-.369-1.527v-3.868h1.273v3.812q0 .547.191.946c.128.268.312.468.557.609q.366.211.861.211.75.002 1.173-.468.426-.47.426-1.295v-3.811h1.269v3.867q0 .87-.369 1.528-.368.66-1.017 1.017a3 3 0 0 1-1.482.359zm6.705.028q-.563 0-1.073-.147a3.4 3.4 0 0 1-.926-.423 3.2 3.2 0 0 1-.726-.651l.819-.813q.367.449.847.665.479.218 1.074.219.594.001.918-.205a.63.63 0 0 0 .326-.566.68.68 0 0 0-.263-.567 2.3 2.3 0 0 0-.669-.338 21 21 0 0 0-.869-.26 4.6 4.6 0 0 1-.868-.338 1.84 1.84 0 0 1-.67-.581q-.262-.37-.262-.975-.001-.601.29-1.045.288-.443.826-.679.538-.24 1.283-.24.792 0 1.404.275.61.273 1.01.82l-.819.813a2 2 0 0 0-.705-.56 2.15 2.15 0 0 0-.932-.197q-.553.001-.84.197-.29.196-.291.518c0 .214.085.398.255.517q.255.181.67.31l.868.26q.453.132.862.359c.273.148.496.352.67.602q.26.38.262.996 0 .941-.67 1.485-.672.547-1.801.546zm4.544-8.129a.77.77 0 0 1-.578-.233.8.8 0 0 1-.226-.58c0-.233.074-.412.226-.567a.77.77 0 0 1 .578-.232.77.77 0 0 1 .578.232.78.78 0 0 1 .227.567.8.8 0 0 1-.227.58.77.77 0 0 1-.578.233m-.648 7.989v-6.659h1.283v6.659zm3.162.002v-6.659h1.269v6.659zm4.728 0v-3.882c0-.503-.159-.922-.475-1.246q-.472-.49-1.233-.489-.51-.001-.904.226a1.6 1.6 0 0 0-.62.615 1.74 1.74 0 0 0-.227.898l-.521-.296c0-.503.113-.954.34-1.344q.34-.59.947-.933a2.73 2.73 0 0 1 1.368-.345q.761 0 1.347.38c.389.254.698.581.925.989s.34.838.34 1.295v4.136h-1.283zm6.114.138q-1.016 0-1.815-.454a3.4 3.4 0 0 1-1.262-1.239q-.463-.782-.464-1.781c0-.665.152-1.242.457-1.767q.458-.785 1.241-1.239a3.45 3.45 0 0 1 1.758-.454q.92 0 1.637.423.719.42 1.124 1.165.402.742.4 1.696a3 3 0 0 1-.071.662h-5.66v-1.053h4.983l-.464.409q.002-.672-.241-1.144a1.75 1.75 0 0 0-.677-.729q-.437-.259-1.06-.26c-.414 0-.815.095-1.141.281q-.496.28-.762.785c-.177.338-.269.732-.269 1.193s.095.877.283 1.229q.282.526.805.813.522.286 1.198.288.564-.001 1.038-.197.473-.196.812-.588l.819.827c-.33.373-.723.658-1.188.856a3.7 3.7 0 0 1-1.481.295zm6.593 0a4 4 0 0 1-1.074-.147 3.4 3.4 0 0 1-.925-.423 3.2 3.2 0 0 1-.727-.651l.819-.813q.367.449.847.665.478.218 1.074.219.595.001.918-.205a.63.63 0 0 0 .326-.566.68.68 0 0 0-.262-.567 2.3 2.3 0 0 0-.67-.338 21 21 0 0 0-.869-.26 4.6 4.6 0 0 1-.868-.338 1.84 1.84 0 0 1-.67-.581q-.262-.37-.262-.975-.001-.601.29-1.045.288-.443.826-.679.538-.24 1.283-.24.793 0 1.404.275a2.5 2.5 0 0 1 1.01.82l-.819.813a2 2 0 0 0-.705-.56 2.15 2.15 0 0 0-.932-.197q-.553.001-.84.197-.29.196-.291.518c0 .214.085.398.255.517q.256.181.67.31l.869.26q.451.132.861.359c.273.148.496.352.67.602q.261.38.262.996 0 .941-.67 1.485c-.446.366-1.049.546-1.8.546zm6.025 0a4 4 0 0 1-1.074-.147 3.4 3.4 0 0 1-.925-.423 3.2 3.2 0 0 1-.727-.651l.819-.813q.368.449.847.665.478.218 1.074.219.595.001.918-.205a.63.63 0 0 0 .326-.566.68.68 0 0 0-.262-.567 2.3 2.3 0 0 0-.67-.338 21 21 0 0 0-.868-.26 4.6 4.6 0 0 1-.869-.338 1.84 1.84 0 0 1-.67-.581q-.26-.37-.262-.975 0-.601.291-1.045a1.83 1.83 0 0 1 .826-.679q.538-.24 1.283-.24.792 0 1.403.275.612.273 1.011.82l-.819.813a2.05 2.05 0 0 0-.706-.56 2.14 2.14 0 0 0-.932-.197q-.552.001-.84.197t-.29.518c0 .214.085.398.255.517q.255.181.67.31l.868.26q.452.132.861.359.41.228.67.602.262.38.263.996 0 .941-.67 1.485-.67.547-1.801.546z"/></g><defs><clipPath id="a"><path fill="#fff" d="M0 0h159v114.802H0z"/></clipPath></defs></svg>