<svg xmlns="http://www.w3.org/2000/svg" width="144" height="54" fill="none" viewBox="0 0 144 54"><rect width="143.4" height="53.092" fill="#353333" rx="26.546"/><path fill="#fff" d="M34.23 33.212a5.6 5.6 0 0 1-2.266-.466 5.9 5.9 0 0 1-1.866-1.283 6.4 6.4 0 0 1-1.266-1.916 6.1 6.1 0 0 1-.45-2.349q0-1.25.45-2.332a6.2 6.2 0 0 1 1.266-1.9 5.7 5.7 0 0 1 1.9-1.283 6 6 0 0 1 2.365-.466q1.383 0 2.566.533 1.184.533 1.983 1.516l-1.3 1.3a3.27 3.27 0 0 0-1.383-1.116q-.866-.4-1.866-.4-1.2 0-2.115.533a3.6 3.6 0 0 0-1.4 1.45q-.5.932-.5 2.165t.5 2.183q.516.932 1.383 1.466.866.533 1.966.533 1.166 0 1.999-.417.85-.433 1.3-1.266.45-.849.45-2.082l1.199.866h-4.982v-1.75h5.765v.267q0 2.084-.75 3.465-.732 1.383-2.016 2.066-1.282.684-2.932.683m11.07 0q-1.2 0-2.166-.533a4.2 4.2 0 0 1-1.516-1.5q-.55-.948-.55-2.132 0-1.182.55-2.116a4.1 4.1 0 0 1 1.483-1.499 4.1 4.1 0 0 1 2.1-.55q1.115 0 1.965.517a3.6 3.6 0 0 1 1.35 1.416q.5.9.5 2.05 0 .198-.034.416a4 4 0 0 1-.066.45H42.35v-1.5h5.615l-.683.6q-.033-.734-.284-1.233a1.77 1.77 0 0 0-.716-.767q-.45-.266-1.116-.266-.7 0-1.216.3-.517.3-.8.85-.283.533-.283 1.282 0 .75.3 1.317.3.565.85.883.55.3 1.265.3a2.9 2.9 0 0 0 1.133-.217q.534-.218.9-.633l1.166 1.183q-.582.683-1.416 1.033a4.5 4.5 0 0 1-1.766.35m6.19-.166v-11.33h1.832v11.33zm-1.917-6.331V25.05h5.665v1.666zm13.83 6.497q-1.381 0-2.349-.5-.966-.499-1.732-1.466l1.3-1.299q.482.7 1.149 1.1.666.383 1.7.383.965 0 1.532-.4.583-.4.583-1.1 0-.582-.3-.95a2.2 2.2 0 0 0-.8-.6 6.5 6.5 0 0 0-1.083-.432 31 31 0 0 1-1.182-.433 5.5 5.5 0 0 1-1.083-.617 2.75 2.75 0 0 1-.783-.95q-.3-.583-.3-1.482 0-1.033.5-1.75a3.27 3.27 0 0 1 1.382-1.116q.867-.383 1.933-.383 1.15 0 2.05.45.915.45 1.482 1.15l-1.3 1.299q-.5-.566-1.05-.833Q64.52 23 63.82 23q-.867 0-1.366.35-.483.35-.483.982 0 .534.3.867.3.316.783.55.5.216 1.082.416.6.2 1.183.45.6.25 1.083.65.5.382.8 1 .3.615.3 1.549 0 1.566-1.116 2.482-1.1.916-2.983.916m6.976-.166v-11.33h1.832v11.33zm-1.916-6.331v-1.666h5.664v1.666zm10.117 6.497a3.64 3.64 0 0 1-1.966-.55 4.04 4.04 0 0 1-1.383-1.482q-.5-.95-.5-2.116 0-1.183.5-2.116a4 4 0 0 1 1.383-1.5 3.57 3.57 0 0 1 1.966-.566q.916 0 1.616.4.716.384 1.133 1.066.416.683.416 1.55v2.299q0 .867-.416 1.55a2.9 2.9 0 0 1-1.117 1.082q-.715.384-1.632.383m.3-1.732q1.016 0 1.632-.683.633-.684.633-1.75 0-.716-.283-1.266a2.04 2.04 0 0 0-.8-.85q-.5-.315-1.182-.316-.667 0-1.183.317-.5.3-.8.85a2.7 2.7 0 0 0-.283 1.265q0 .717.283 1.267.3.55.8.866.516.3 1.183.3m2.149 1.566v-2.15l.316-1.949-.316-1.932v-1.966h1.832v7.997zm3.866 0v-7.997h1.833v7.997zm1.833-4.448-.633-.317q0-1.515.666-2.45.684-.949 2.05-.949.6 0 1.082.217.483.216.9.7l-1.2 1.233a1.26 1.26 0 0 0-.483-.334 1.8 1.8 0 0 0-.616-.1q-.766 0-1.266.483-.5.484-.5 1.517m6.184 4.448v-11.33h1.833v11.33zm-1.916-6.331v-1.666h5.665v1.666zm10.484 6.497q-1.2 0-2.166-.533a4.2 4.2 0 0 1-1.516-1.5q-.55-.948-.55-2.132 0-1.182.55-2.116a4.1 4.1 0 0 1 1.483-1.499 4.1 4.1 0 0 1 2.099-.55q1.116 0 1.966.517a3.6 3.6 0 0 1 1.349 1.416q.5.9.5 2.05 0 .198-.033.416a4 4 0 0 1-.067.45h-6.564v-1.5h5.615l-.683.6q-.034-.734-.284-1.233a1.77 1.77 0 0 0-.716-.767q-.45-.266-1.116-.266-.7 0-1.217.3-.515.3-.8.85-.282.533-.282 1.282 0 .75.3 1.317.3.565.849.883.55.3 1.266.3a2.9 2.9 0 0 0 1.133-.217q.533-.218.9-.633l1.166 1.183q-.584.683-1.416 1.033a4.5 4.5 0 0 1-1.766.35m8.533 0a3.65 3.65 0 0 1-1.966-.55 4.05 4.05 0 0 1-1.383-1.482q-.5-.95-.5-2.116 0-1.183.5-2.116a4 4 0 0 1 1.383-1.5 3.57 3.57 0 0 1 1.966-.566q.917 0 1.616.4.716.384 1.133 1.066.416.683.416 1.55v2.299q0 .867-.416 1.55a2.9 2.9 0 0 1-1.116 1.082q-.717.384-1.633.383m.3-1.732q.683 0 1.183-.3.517-.317.799-.866.284-.55.284-1.267t-.284-1.266a2.03 2.03 0 0 0-.799-.85q-.5-.315-1.183-.316-.666 0-1.183.317-.5.3-.8.85a2.74 2.74 0 0 0-.283 1.265q0 .717.283 1.267.3.55.8.866.516.3 1.183.3m3.982 1.566h-1.833v-2.15l.317-1.949-.317-1.932V21.05h1.833z"/></svg>