<svg xmlns="http://www.w3.org/2000/svg" width="129" height="36" fill="none" viewBox="0 0 129 36"><rect width="128.448" height="36" fill="#353333" rx="18"/><path fill="url(#a)" fill-rule="evenodd" d="M19.08 9.706c-.188.207-.297.524-.297.939v14.71c0 .414.11.73.304.93l.05.045 8.083-8.242v-.184l-8.089-8.243z" clip-rule="evenodd"/><path fill="url(#b)" fill-rule="evenodd" d="m29.909 20.843-2.696-2.748v-.193l2.696-2.749.058.037 3.189 1.848c.913.524.913 1.39 0 1.92l-3.189 1.849z" clip-rule="evenodd"/><path fill="url(#c)" fill-rule="evenodd" d="m29.967 20.808-2.754-2.809-8.133 8.293c.298.325.797.361 1.355.045z" clip-rule="evenodd"/><path fill="url(#d)" fill-rule="evenodd" d="m29.967 15.19-9.532-5.521c-.558-.325-1.059-.28-1.355.045l8.133 8.284z" clip-rule="evenodd"/><path fill="#000" fill-rule="evenodd" d="m29.91 20.748-9.467 5.484c-.529.31-1 .289-1.305.007l-.05.051.05.045c.305.28.776.304 1.305-.006l9.532-5.521z" clip-rule="evenodd" opacity=".2"/><path fill="#000" fill-rule="evenodd" d="M33.156 18.863 29.9 20.748l.059.06 3.189-1.849c.457-.265.681-.613.681-.96-.027.319-.26.62-.673.864" clip-rule="evenodd" opacity=".12"/><path fill="#fff" fill-rule="evenodd" d="m20.436 9.766 12.72 7.369c.414.237.647.547.682.864 0-.346-.224-.695-.681-.96l-12.72-7.37c-.914-.532-1.654-.087-1.654.976v.097c0-1.066.74-1.502 1.653-.976" clip-rule="evenodd" opacity=".25"/><path fill="#fff" d="M46.575 23.125a4.2 4.2 0 0 1-1.703-.35 4.4 4.4 0 0 1-1.403-.965 4.8 4.8 0 0 1-.952-1.44 4.6 4.6 0 0 1-.338-1.765q0-.939.338-1.753.35-.815.952-1.428.614-.625 1.428-.964a4.5 4.5 0 0 1 1.778-.35q1.039 0 1.928.4.89.4 1.49 1.14l-.977.976a2.46 2.46 0 0 0-1.039-.839q-.65-.3-1.402-.3-.901 0-1.59.4-.677.39-1.052 1.09-.375.702-.376 1.628 0 .927.376 1.64.388.702 1.039 1.102t1.477.4q.877 0 1.503-.312.639-.325.977-.952.338-.639.338-1.565l.901.651h-3.744v-1.315h4.333v.2q0 1.566-.563 2.605-.552 1.039-1.516 1.553-.964.513-2.203.513m8.282 0a3.1 3.1 0 0 1-1.59-.413 3.24 3.24 0 0 1-1.14-1.14 3.1 3.1 0 0 1-.413-1.59q0-.876.413-1.578a3.2 3.2 0 0 1 1.14-1.114 3.05 3.05 0 0 1 1.59-.426 3.14 3.14 0 0 1 1.603.414q.713.412 1.127 1.127.426.7.426 1.577 0 .878-.426 1.59a3.14 3.14 0 0 1-1.127 1.14 3.14 3.14 0 0 1-1.603.413m0-1.327q.513 0 .902-.225a1.6 1.6 0 0 0 .613-.652q.226-.413.226-.939t-.226-.926a1.64 1.64 0 0 0-.613-.626 1.7 1.7 0 0 0-.902-.238q-.5 0-.901.238-.39.224-.614.626a1.95 1.95 0 0 0-.213.926q0 .526.213.94.225.413.614.65.4.225.901.226m7.056 1.327a3.1 3.1 0 0 1-1.59-.413 3.24 3.24 0 0 1-1.14-1.14 3.1 3.1 0 0 1-.413-1.59q0-.876.413-1.578a3.2 3.2 0 0 1 1.14-1.114 3.05 3.05 0 0 1 1.59-.426 3.14 3.14 0 0 1 1.603.414q.713.412 1.127 1.127.425.7.425 1.577 0 .878-.425 1.59a3.14 3.14 0 0 1-1.127 1.14 3.14 3.14 0 0 1-1.603.413m0-1.327q.514 0 .901-.225a1.6 1.6 0 0 0 .614-.652q.225-.413.225-.939t-.225-.926a1.64 1.64 0 0 0-.614-.626 1.7 1.7 0 0 0-.901-.238q-.501 0-.902.238-.388.224-.613.626a1.95 1.95 0 0 0-.213.926q0 .526.213.94.225.413.613.65.4.225.902.226m6.805 3.832q-.952 0-1.665-.351a2.9 2.9 0 0 1-1.152-.964l.901-.902q.363.45.827.676t1.114.226q.815 0 1.29-.426.476-.412.476-1.14v-1.477l.238-1.327-.238-1.34V16.99h1.377v5.76q0 .863-.4 1.502a2.73 2.73 0 0 1-1.115 1.014q-.714.364-1.653.364m-.063-2.755q-.801 0-1.452-.388a2.9 2.9 0 0 1-1.014-1.09 3.25 3.25 0 0 1-.363-1.54q0-.852.363-1.528.375-.675 1.014-1.064.651-.4 1.452-.4.714 0 1.253.287.538.288.839.802.3.5.3 1.177v1.477q0 .664-.313 1.177-.3.514-.839.802a2.6 2.6 0 0 1-1.24.288m.276-1.302q.501 0 .876-.213.376-.213.576-.589.213-.389.213-.901 0-.514-.213-.89a1.43 1.43 0 0 0-.576-.6 1.75 1.75 0 0 0-.876-.213q-.5 0-.89.212a1.5 1.5 0 0 0-.588.601q-.213.376-.213.89 0 .5.213.889.213.388.589.6.388.214.889.213M73.416 23v-9.016h1.377V23zm5.703.125a3.3 3.3 0 0 1-1.628-.4 3.14 3.14 0 0 1-1.14-1.127 3.14 3.14 0 0 1-.413-1.603q0-.89.413-1.59a3.07 3.07 0 0 1 1.115-1.127 3.1 3.1 0 0 1 1.578-.414q.839 0 1.477.389.651.387 1.014 1.064.376.675.376 1.54 0 .15-.025.313-.012.15-.05.338h-4.934v-1.127h4.22l-.513.451q-.025-.55-.213-.927a1.33 1.33 0 0 0-.538-.576q-.338-.2-.84-.2-.526 0-.913.226-.39.225-.602.638-.212.401-.212.964 0 .564.225.99.225.425.639.663.413.225.951.226.464 0 .852-.163.4-.163.676-.476l.876.889a2.8 2.8 0 0 1-1.064.776q-.626.263-1.327.263m7.58-3.43v-1.253h2.191q.45 0 .79-.175a1.4 1.4 0 0 0 .55-.514q.2-.338.2-.788 0-.451-.2-.777a1.3 1.3 0 0 0-.55-.513 1.6 1.6 0 0 0-.79-.188H86.7v-1.252h2.266q.826 0 1.477.338.663.338 1.04.952.387.613.388 1.44 0 .825-.389 1.44-.375.613-1.039.951a3.16 3.16 0 0 1-1.477.338zM85.71 23v-8.765h1.44V23zm7.37 0v-9.016h1.378V23zm5.427.125a2.74 2.74 0 0 1-1.477-.413 3.04 3.04 0 0 1-1.04-1.114 3.36 3.36 0 0 1-.375-1.59q0-.89.375-1.59a3 3 0 0 1 1.04-1.128 2.7 2.7 0 0 1 1.477-.426q.69 0 1.215.3.539.29.851.802.313.513.313 1.165v1.728q0 .651-.313 1.164-.3.514-.839.814a2.56 2.56 0 0 1-1.227.288m.226-1.302q.764 0 1.227-.513.476-.514.476-1.315 0-.539-.213-.952a1.53 1.53 0 0 0-.601-.639 1.63 1.63 0 0 0-.89-.237q-.5 0-.888.237-.376.225-.601.64a2.05 2.05 0 0 0-.213.95q0 .54.213.952.225.414.6.652.39.225.89.225M100.347 23v-1.615l.238-1.465-.238-1.453V16.99h1.377V23zm4.847.063-2.567-6.073h1.515l1.753 4.457h-.438l1.853-4.457h1.528l-2.793 6.073zm-1.791 2.441 1.866-3.844.776 1.403-1.114 2.441z"/><defs><linearGradient id="a" x1="26.495" x2="13.516" y1="10.486" y2="13.878" gradientUnits="userSpaceOnUse"><stop stop-color="#00a0ff"/><stop offset=".007" stop-color="#00a1ff"/><stop offset=".26" stop-color="#00beff"/><stop offset=".512" stop-color="#00d2ff"/><stop offset=".76" stop-color="#00dfff"/><stop offset="1" stop-color="#00e3ff"/></linearGradient><linearGradient id="b" x1="34.346" x2="18.561" y1="17.998" y2="17.998" gradientUnits="userSpaceOnUse"><stop stop-color="#ffe000"/><stop offset=".409" stop-color="#ffbd00"/><stop offset=".775" stop-color="orange"/><stop offset="1" stop-color="#ff9c00"/></linearGradient><linearGradient id="c" x1="28.47" x2="17.774" y1="19.527" y2="37.181" gradientUnits="userSpaceOnUse"><stop stop-color="#ff3a44"/><stop offset="1" stop-color="#c31162"/></linearGradient><linearGradient id="d" x1="17.032" x2="21.804" y1="4.813" y2="12.697" gradientUnits="userSpaceOnUse"><stop stop-color="#32a071"/><stop offset=".069" stop-color="#2da771"/><stop offset=".476" stop-color="#15cf74"/><stop offset=".801" stop-color="#06e775"/><stop offset="1" stop-color="#00f076"/></linearGradient></defs></svg>