<svg xmlns="http://www.w3.org/2000/svg" width="107" height="78" fill="none" viewBox="0 0 107 78"><g clip-path="url(#a)"><path fill="#f9b716" d="M72.62 41.416c11.407 0 20.655-9.271 20.655-20.708S84.027 0 72.62 0 51.963 9.271 51.963 20.708s9.248 20.708 20.656 20.708"/><path fill="#e9262a" d="m20.773 30.962.088-.445.07-.457.057-.464.03-.475.008-.483-.007-.476-.031-.471-.057-.464-.07-.452-.088-.438-.114-.433-.134-.425-.145-.414-.065-.153-.107-.249-.184-.387-.203-.375-.221-.369-.241-.356-.253-.337-.272-.33-.286-.318-.303-.3-.317-.286-.337-.273-.348-.253-.36-.242-.38-.23-.386-.21-.405-.196-.418-.177-.431-.158-.349-.107-.095-.031-.451-.127-.47-.108-.474-.083-.49-.07-.5-.05-.506-.03-.52-.008H0v29.305h6.512V38.014h4.498l.52-.008.506-.03.5-.05.49-.065.475-.089.47-.1.45-.127.444-.139.432-.158.417-.172.405-.191.387-.21.38-.223.36-.241.348-.254.336-.268.317-.287.303-.299.286-.318.272-.322.253-.342.241-.35.222-.368.203-.375.183-.395.1-.241.07-.158.145-.414.134-.425.114-.438zm-6.285-1.81-.076.452-.12.418-.171.388-.215.36-.253.323-.29.3-.337.253-.367.222-.399.191-.436.146-.463.108-.494.064-.513.02H6.56v-7.483h3.795l.513.027.494.064.463.1.436.146.399.185.367.215.336.26.291.3.253.33.215.36.171.395.12.433.076.457.026.49zm43.67 6.332-.348-.35-.337-.356-.329-.36-.317-.37-.31-.38-.303-.387-.291-.394-.286-.4-.28-.406-.26-.414-.26-.425-.245-.426-.234-.433-3.56 8.633-4.986-11h-7.015l8.623 17.776-4.664 10.663h6.596l9.154-20.634zM39.292 48.002l-.058-.507-.05-.622-.03-.622-.008-.088-.019-.782v-10.08l-.007-.386-.026-.414-.039-.414-.064-.406-.076-.4-.096-.394-.114-.38-.065-.192-.069-.184-.152-.368-.172-.361-.191-.342-.215-.337-.233-.323-.253-.311-.28-.299-.297-.287-.318-.272-.348-.254-.367-.234-.394-.223-.413-.203-.436-.184-.47-.165-.489-.146-.52-.127-.539-.1-.57-.084-.596-.064-.62-.031-.647-.012-.658.012-.628.045-.6.077-.578.107-.55.127-.52.153-.502.177-.47.196-.45.215-.425.242-.394.253-.374.268-.348.287-.33.299-.298.31-.279.319-.26.323-.229.337-.21.337-.19.342-.165.349-.145.342-.12.349-.1.342-.076.342-.058.337-.038.33 5.444 1.112.057-.414.114-.406.165-.395.222-.368.267-.342.322-.304.367-.267.425-.216.47-.165.524-.1.57-.038.628.038.55.108.482.165.413.23.337.267.26.318.19.342.115.375.038.395-.045.4-.158.348-.279.292-.417.222-.582.14-4.828.743-.475.084-.47.1-.455.127-.437.145-.431.166-.413.19-.394.211-.374.23-.355.253-.337.273-.31.292-.29.318-.26.337-.242.36-.21.381-.183.4-.146.425-.12.445-.087.464-.058.49-.012.507.012.426.046.418.069.414.1.406.134.4.152.387.184.375.215.369.233.349.268.33.29.323.318.299.34.28.361.26.394.241.417.216.436.19.463.166.49.139.505.107.532.084.55.045.578.02.57-.02.551-.05.525-.084.5-.114.475-.146.456-.177.425-.203.405-.23.375-.26.355-.28.322-.3.298-.322.272-.342.24-.361.02.763.045.61.058.456.05.311.038.172h5.646l-.031-.196-.05-.361zM33.025 40.5l-.026.648-.083.578-.134.522-.176.456-.215.4-.26.342-.286.291-.317.242-.341.203-.36.153-.375.115-.387.084-.393.045-.399.012-.6-.045-.506-.134-.425-.204-.336-.268-.253-.318-.176-.356-.1-.387-.032-.4.046-.502.133-.433.203-.368.279-.299.341-.241.394-.191.436-.14.475-.1 3.876-.617v.91z"/><path fill="#fff" fill-rule="evenodd" d="M66.546 10.816h-4.974v22.642h4.974zm19.012 8.687c0 4.797-3.878 8.685-8.663 8.685s-8.663-3.888-8.663-8.685 3.878-8.685 8.663-8.685 8.663 3.888 8.663 8.685" clip-rule="evenodd"/><path fill="#e9262a" d="m71.204 56.424-3.464-10.57h1.7l2.606 8.138h-.451l2.545-8.137h1.204l2.546 8.137h-.451l2.604-8.137h1.701l-3.463 10.569h-1.205l-2.56-8.123h.451l-2.559 8.123zm14.112.151q-1.055 0-1.913-.508a3.8 3.8 0 0 1-1.362-1.365 3.7 3.7 0 0 1-.506-1.918q.001-1.057.506-1.903a3.8 3.8 0 0 1 1.362-1.351 3.7 3.7 0 0 1 1.913-.507 3.73 3.73 0 0 1 3.29 1.848q.504.855.505 1.91a3.7 3.7 0 0 1-.506 1.919 3.77 3.77 0 0 1-1.362 1.365 3.7 3.7 0 0 1-1.927.507zm0-1.6q.616 0 1.092-.28a1.9 1.9 0 0 0 .737-.777q.264-.499.263-1.134 0-.635-.27-1.116a2.04 2.04 0 0 0-.737-.763 2.07 2.07 0 0 0-1.085-.28 2.04 2.04 0 0 0-1.076.28q-.476.279-.737.763a2.3 2.3 0 0 0-.265 1.116q0 .635.265 1.134.265.497.737.777.475.28 1.076.28m5.164 1.449v-7.248h1.658v7.248zm1.658-4.032-.572-.287q0-1.373.61-2.226.61-.855 1.844-.854.543 0 .978.196.437.197.813.634l-1.085 1.117a1.14 1.14 0 0 0-.436-.302q-.24-.09-.558-.09-.695 0-1.145.437-.45.438-.451 1.375zm4.472 4.032v-10.87h1.657v10.87zm6.52.151a3.27 3.27 0 0 1-1.769-.498 3.5 3.5 0 0 1-1.25-1.351q-.461-.854-.46-1.91c0-.706.152-1.356.46-1.925a3.6 3.6 0 0 1 1.25-1.359 3.2 3.2 0 0 1 1.769-.507q.828.001 1.47.354.64.356 1.016.973.376.62.377 1.404v2.083q0 .785-.37 1.404a2.6 2.6 0 0 1-1.016.973q-.647.354-1.477.354zm.272-1.572q.618 0 1.079-.28.457-.279.715-.776.254-.5.255-1.148 0-.65-.255-1.148a1.9 1.9 0 0 0-.715-.777 2.04 2.04 0 0 0-1.079-.28 1.97 1.97 0 0 0-1.061.28 2 2 0 0 0-.723.777 2.4 2.4 0 0 0-.265 1.148q0 .648.265 1.148c.174.332.418.59.723.777q.46.28 1.061.28m3.6 1.418h-1.658v-1.946l.286-1.767-.286-1.75v-5.405h1.658v10.87zM.563 76.687v-6.61h.627l.267 1.048v5.562zm4.56 0-4.048-5.409.115-1.2 4.057 5.409zm0 0-.267-.98v-5.63h.892v6.61h-.627zm4.085.093a2.31 2.31 0 0 1-2.032-1.164 2.34 2.34 0 0 1-.313-1.205c0-.445.105-.832.313-1.186q.315-.529.844-.844.533-.314 1.188-.314c.436 0 .844.103 1.202.309a2.3 2.3 0 0 1 1.162 2.032c0 .438-.105.847-.313 1.206a2.32 2.32 0 0 1-2.051 1.164zm0-.827q.438 0 .77-.2.333-.201.523-.548t.19-.797c0-.299-.064-.552-.195-.782a1.41 1.41 0 0 0-1.288-.734 1.42 1.42 0 0 0-1.274.734c-.126.23-.19.488-.19.782s.064.565.19.797a1.42 1.42 0 0 0 1.274.748m5.435.734v-6.61h.892v6.61zm.598 0v-.782h1.994q.57 0 .892-.337.322-.338.322-.815 0-.324-.143-.581a1.07 1.07 0 0 0-.412-.414 1.25 1.25 0 0 0-.642-.158h-2.013v-.782h1.882q.484 0 .766-.25.28-.253.281-.73 0-.476-.296-.73-.292-.25-.79-.25H15.24v-.783h1.872q.645.001 1.078.235t.656.614.225.837q-.001.535-.289.933-.29.4-.85.629l.077-.287q.638.229.992.69.357.465.356 1.091 0 .526-.258.942-.257.42-.737.672t-1.173.254H15.24zm7.219.093a2.31 2.31 0 0 1-2.032-1.164 2.36 2.36 0 0 1-.313-1.205c0-.445.105-.832.313-1.186q.313-.53.844-.844.533-.314 1.188-.314c.436 0 .844.103 1.202.309a2.3 2.3 0 0 1 1.162 2.032c0 .438-.105.847-.313 1.206a2.33 2.33 0 0 1-2.051 1.165zm0-.827q.437 0 .77-.2.333-.201.523-.548t.19-.797c0-.299-.064-.552-.195-.782a1.43 1.43 0 0 0-.522-.538 1.5 1.5 0 0 0-.766-.196c-.293 0-.53.065-.751.196a1.4 1.4 0 0 0-.523.538c-.126.23-.19.488-.19.782s.064.565.19.797a1.42 1.42 0 0 0 1.274.748m3.317.734v-4.524h.854v4.524zm.854-2.57-.322-.153c0-.58.134-1.038.399-1.383q.399-.513 1.15-.514.341 0 .617.12.276.118.513.394l-.56.581a.9.9 0 0 0-.313-.22 1.1 1.1 0 0 0-.398-.066q-.477 0-.78.303-.305.305-.306.933zm4.712 2.663q-.618 0-1.111-.308a2.24 2.24 0 0 1-.785-.842 2.5 2.5 0 0 1-.289-1.2q0-.667.289-1.2.29-.535.785-.847.493-.314 1.111-.313.513 0 .92.215t.662.59q.252.377.281.871v1.363a1.73 1.73 0 0 1-.933 1.461 1.96 1.96 0 0 1-.93.215zm.143-.81q.426 0 .752-.201.323-.2.503-.548t.181-.796c0-.299-.06-.574-.181-.806a1.4 1.4 0 0 0-.503-.547 1.4 1.4 0 0 0-.752-.201q-.427-.001-.751.196-.322.194-.508.543-.186.348-.186.805c0 .307.062.574.186.811q.184.353.513.548t.746.196m2.242.715h-.863v-1.22l.162-1.105-.162-1.095v-3.38h.863zm3.335.095q-.685 0-1.221-.308a2.3 2.3 0 0 1-.852-.842 2.33 2.33 0 0 1-.312-1.21c0-.452.102-.844.307-1.2q.309-.533.838-.842.526-.309 1.183-.308c.41 0 .78.095 1.102.287q.484.286.756.791t.272 1.153a2 2 0 0 1-.048.45h-3.81v-.716h3.355l-.313.278q0-.457-.162-.778a1.2 1.2 0 0 0-.456-.494 1.37 1.37 0 0 0-.713-.177 1.56 1.56 0 0 0-.77.19 1.3 1.3 0 0 0-.513.534 1.7 1.7 0 0 0-.181.81c0 .314.064.596.19.835q.19.36.542.553.35.195.806.196.38-.001.699-.134.317-.133.546-.4l.551.563a2.2 2.2 0 0 1-.799.58q-.468.202-.997.201zm3.002-.093v-4.524h.853v4.524zm.853-2.57-.322-.153c0-.58.134-1.038.399-1.383q.4-.513 1.15-.514.342 0 .617.12.277.118.513.394l-.56.581a.9.9 0 0 0-.313-.22 1.1 1.1 0 0 0-.398-.066q-.477 0-.78.303-.305.305-.306.933zm4.297 2.663a2.6 2.6 0 0 1-.723-.1 2.25 2.25 0 0 1-1.111-.73l.55-.552q.248.305.57.452.324.148.724.149.4 0 .617-.14.22-.137.22-.384a.46.46 0 0 0-.177-.385 1.5 1.5 0 0 0-.45-.23q-.277-.09-.585-.177a3 3 0 0 1-.584-.23 1.24 1.24 0 0 1-.451-.394q-.176-.252-.176-.662t.195-.71.556-.462q.362-.161.863-.162.533 0 .945.186.41.185.68.557l-.551.553a1.4 1.4 0 0 0-.475-.38 1.4 1.4 0 0 0-.627-.135q-.372.001-.566.134a.41.41 0 0 0-.195.352c0 .146.057.27.172.351q.171.124.45.21l.585.178q.303.089.58.244c.183.1.333.239.45.409q.176.258.177.676 0 .64-.451 1.01-.451.371-1.212.37zm2.67.955.589-1.134.305-.076a.5.5 0 0 1-.124.172.25.25 0 0 1-.172.067.5.5 0 0 1-.364-.168.56.56 0 0 1-.167-.413.63.63 0 0 1 .636-.648q.247 0 .437.186t.19.462q0 .103-.042.253a2 2 0 0 1-.167.385l-.637 1.181zm5.634-.955q-.57 0-1.002-.224a2.1 2.1 0 0 1-.718-.605l.637-.581a1.23 1.23 0 0 0 1.054.552q.332 0 .59-.144a1 1 0 0 0 .402-.423 1.5 1.5 0 0 0 .148-.69v-4.592h.892v4.543q-.001.656-.26 1.143a1.9 1.9 0 0 1-.713.754q-.45.268-1.03.267m5.147-.019q-.562 0-1.002-.244a1.73 1.73 0 0 1-.69-.69 2.1 2.1 0 0 1-.247-1.038V72.16h.856v2.59q0 .37.129.642.128.272.374.414.247.144.58.144.504 0 .79-.318.285-.32.285-.88v-2.59h.854v2.628q0 .591-.248 1.038a1.73 1.73 0 0 1-.684.69 2 2 0 0 1-.997.245zm4.512.019a2.6 2.6 0 0 1-.723-.1 2.25 2.25 0 0 1-1.111-.73l.55-.552q.248.305.57.452t.724.149q.4 0 .617-.14.22-.137.22-.384a.46.46 0 0 0-.177-.385 1.5 1.5 0 0 0-.45-.23q-.277-.09-.585-.177a3 3 0 0 1-.584-.23 1.24 1.24 0 0 1-.451-.394q-.176-.252-.177-.662 0-.41.196-.71.194-.3.556-.462.362-.161.863-.162.533 0 .945.186.41.185.68.557l-.551.553a1.4 1.4 0 0 0-.475-.38 1.4 1.4 0 0 0-.627-.135q-.372.001-.566.134a.41.41 0 0 0-.195.352c0 .146.057.27.171.351q.172.124.451.21l.585.178q.303.089.58.244c.183.1.333.239.45.409q.176.258.177.676 0 .64-.451 1.01-.451.371-1.212.37zm2.205-3.837v-.782h3.077v.781zm1.111 3.742v-6.418h.854v6.418zm4.92.002v-6.61h.892v6.61zm.599 0v-.782h1.994q.57 0 .892-.337.322-.338.322-.815 0-.324-.143-.581a1.07 1.07 0 0 0-.413-.414 1.25 1.25 0 0 0-.642-.158H72.01v-.782h1.88q.484 0 .766-.25.28-.253.281-.73 0-.476-.296-.73-.293-.25-.787-.25H72.01v-.783h1.873q.646.001 1.078.235.431.233.656.614.223.382.224.837-.001.535-.288.933-.291.4-.85.629l.077-.287q.637.229.992.69.356.465.355 1.091 0 .526-.257.942-.258.42-.737.672-.48.253-1.174.254h-1.946zm6.995.074q-.562 0-1.002-.244a1.73 1.73 0 0 1-.69-.69 2.1 2.1 0 0 1-.248-1.038V72.16h.857v2.59q0 .37.129.642.128.272.374.414.247.144.58.144.503 0 .79-.318.285-.32.285-.88v-2.59h.854v2.628q0 .591-.248 1.038a1.73 1.73 0 0 1-.684.69 2 2 0 0 1-.997.245zm4.512.019a2.6 2.6 0 0 1-.723-.1 2.25 2.25 0 0 1-1.111-.73l.55-.552q.248.305.57.452t.723.149q.4 0 .618-.14.22-.137.22-.384a.46.46 0 0 0-.177-.385 1.5 1.5 0 0 0-.45-.23q-.277-.09-.585-.177a3 3 0 0 1-.585-.23 1.24 1.24 0 0 1-.45-.394q-.176-.252-.177-.662 0-.41.196-.71.194-.3.556-.462.361-.161.863-.162.533 0 .944.186.412.185.68.557l-.55.553a1.4 1.4 0 0 0-.475-.38 1.4 1.4 0 0 0-.628-.135q-.372.001-.565.134a.41.41 0 0 0-.195.352c0 .146.057.27.171.351q.172.124.451.21l.584.178q.304.089.58.244c.184.1.334.239.45.409q.177.258.177.676 0 .64-.45 1.01-.453.371-1.212.37zm3.057-5.523a.52.52 0 0 1-.39-.158.54.54 0 0 1-.152-.395c0-.157.05-.28.153-.385a.52.52 0 0 1 .389-.157q.237 0 .388.157a.53.53 0 0 1 .153.385c0 .151-.05.29-.153.395a.52.52 0 0 1-.388.158m-.437 5.428V72.16h.864v4.524zm2.13.002v-4.524h.854v4.524zm3.182 0V74.05c0-.342-.108-.627-.32-.847q-.32-.332-.83-.332-.344 0-.609.153-.266.151-.417.418-.153.265-.152.61l-.351-.2q0-.516.229-.914.23-.401.637-.634.409-.233.92-.234.512 0 .907.258.394.257.622.672.23.415.23.88v2.81h-.864zm4.113.093q-.684 0-1.222-.308a2.3 2.3 0 0 1-1.161-2.052c0-.452.102-.844.307-1.2a2.28 2.28 0 0 1 2.018-1.15q.62 0 1.102.287.484.286.756.791t.27 1.153a2 2 0 0 1-.048.45h-3.809v-.716h3.354l-.313.278q.001-.457-.162-.778a1.2 1.2 0 0 0-.456-.494 1.37 1.37 0 0 0-.713-.177c-.279 0-.548.064-.768.19a1.3 1.3 0 0 0-.513.534q-.18.344-.181.81c0 .314.064.596.19.835q.191.36.542.553.352.195.806.196.38-.001.7-.134.317-.133.546-.4l.55.563a2.2 2.2 0 0 1-.799.58q-.466.202-.997.201zm4.437 0a2.6 2.6 0 0 1-.722-.1 2.25 2.25 0 0 1-1.112-.73l.551-.552q.248.305.57.452.323.148.723.149.4 0 .618-.14a.43.43 0 0 0 .219-.384.46.46 0 0 0-.177-.385 1.5 1.5 0 0 0-.45-.23q-.277-.09-.585-.177a3 3 0 0 1-.584-.23 1.24 1.24 0 0 1-.45-.394q-.177-.252-.177-.662t.195-.71.556-.462q.362-.161.863-.162.534 0 .945.186.411.185.68.557l-.551.553a1.4 1.4 0 0 0-.475-.38 1.4 1.4 0 0 0-.627-.135q-.372.001-.566.134a.41.41 0 0 0-.195.352c0 .146.057.27.172.351q.171.124.45.21l.585.178q.305.089.579.244c.184.1.334.239.451.409q.176.258.177.676 0 .64-.451 1.01-.452.371-1.212.37zm4.055 0q-.38 0-.723-.1a2.24 2.24 0 0 1-1.111-.73l.551-.552q.247.305.57.452.321.148.722.149.401 0 .618-.14.22-.137.22-.384a.46.46 0 0 0-.177-.385 1.5 1.5 0 0 0-.451-.23q-.276-.09-.584-.177a3 3 0 0 1-.584-.23 1.24 1.24 0 0 1-.451-.394q-.176-.252-.177-.662 0-.41.196-.71.194-.3.556-.462.362-.161.863-.162.533 0 .945.186.412.185.679.557l-.551.553a1.4 1.4 0 0 0-.474-.38 1.4 1.4 0 0 0-.628-.135q-.372.001-.565.134a.41.41 0 0 0-.195.352c0 .146.057.27.171.351q.172.124.451.21l.584.178q.304.089.58.244.276.154.451.409.176.258.176.676 0 .64-.45 1.01-.45.371-1.212.37z"/></g><defs><clipPath id="a"><path fill="#fff" d="M0 0h107v78H0z"/></clipPath></defs></svg>