<svg xmlns="http://www.w3.org/2000/svg" width="81" height="15" fill="none" viewBox="0 0 81 15"><path fill="#fff" d="M2.4 9.2V6.76h3.04q.58 0 1.06-.24t.76-.7.28-1.12q0-.64-.28-1.1a1.83 1.83 0 0 0-.76-.7q-.48-.24-1.06-.24H2.4V.22h3.5q1.34 0 2.42.54t1.7 1.56q.64 1 .64 2.38t-.64 2.4a4.27 4.27 0 0 1-1.7 1.56q-1.08.54-2.42.54zM0 14.34V.22h3.14v14.12zm10.386 0 5.6-14.12h2.84l5.54 14.12h-3.32l-4.24-11.72h1.14l-4.3 11.72zm3.18-2.56V9.22h7.7v2.56zm11.604-1.2V7.9h7.08v2.68zm16.55 3.98a7.9 7.9 0 0 1-2.94-.54 7.4 7.4 0 0 1-2.36-1.56 7.3 7.3 0 0 1-1.56-2.32 7.4 7.4 0 0 1-.56-2.88q0-1.54.56-2.86a6.97 6.97 0 0 1 3.9-3.84A7.7 7.7 0 0 1 41.7 0q1.68 0 2.98.54 1.32.54 2.3 1.48l-2.1 2.12a3.95 3.95 0 0 0-1.36-.94q-.78-.34-1.82-.34-.92 0-1.7.32-.76.3-1.32.88-.54.58-.86 1.4-.3.82-.3 1.8 0 1 .3 1.82.32.82.86 1.4.56.58 1.32.9.78.32 1.7.32 1.08 0 1.88-.34.801-.34 1.38-.94l2.12 2.12a7.8 7.8 0 0 1-2.34 1.48q-1.3.54-3.02.54m9.49-.22V11.9h3.32q.92 0 1.44-.54t.52-1.32q0-.54-.24-.96t-.68-.66q-.42-.24-1.04-.24h-3.32V5.8h3.06q.78 0 1.26-.38.48-.4.48-1.2 0-.78-.48-1.16-.48-.4-1.26-.4h-3.06V.22h3.66q1.36 0 2.3.5.96.5 1.46 1.34t.5 1.86q0 1.3-.84 2.2t-2.48 1.24l.08-1.06q1.78.34 2.74 1.38.98 1.04.98 2.56 0 1.16-.58 2.1-.56.92-1.64 1.46-1.06.54-2.56.54zm-2.4 0V.22h3.1v14.12zm20.68-1.26-5.06-5 1.94-1.92 4.7 4.66-1.2.04 8.64-9.78 1.96 1.96-9.16 10.04z"/></svg>