<svg xmlns="http://www.w3.org/2000/svg" width="66" height="66" fill="none" viewBox="0 0 66 66"><rect width="66" height="66" fill="url(#a)" rx="5"/><path fill="#fff" d="M11 45.04c0 .77.624 1.394 1.393 1.394h12.585v-2.788H12.393c-.769 0-1.393.624-1.393 1.394m2.373-6.194c0 .77.625 1.394 1.393 1.394h10.212v-2.79H14.766c-.768 0-1.393.628-1.393 1.396m2.373-6.194c0 .77.624 1.395 1.395 1.395h7.837v-2.788h-7.837c-.771 0-1.395.623-1.395 1.393m2.374-6.194c0 .771.624 1.395 1.394 1.395h5.465v-2.788h-5.465c-.77 0-1.395.623-1.395 1.393m2.768-6.192c0 .768.624 1.392 1.395 1.392h2.697V18.87h-2.697c-.77 0-1.395.625-1.395 1.396M48.378 15H32.373c-2.03 0-3.678 1.673-3.678 3.71v27.982a3.68 3.68 0 0 0 3.68 3.682h18.96a3.68 3.68 0 0 0 3.679-3.682V21.788zm3.496 31.435c0 .22-.178.432-.4.432H32.238a.4.4 0 0 1-.402-.402V18.934c0-.219.18-.43.402-.43h13.784v6.035h5.853z"/><defs><linearGradient id="a" x1="33" x2="33" y1="0" y2="66" gradientUnits="userSpaceOnUse"><stop stop-color="#ffaf09"/><stop offset="1" stop-color="#f02820"/></linearGradient></defs></svg>