<svg xmlns="http://www.w3.org/2000/svg" width="61" height="42" fill="none" viewBox="0 0 61 42"><g clip-path="url(#a)"><path fill="#fff" d="M40.918 22.301c6.428 0 11.639-4.992 11.639-11.15S47.347 0 40.918 0 29.28 4.992 29.28 11.15s5.211 11.151 11.64 11.151m-29.215-5.629.05-.24.038-.246.033-.25.017-.256.004-.26-.004-.256-.017-.254-.033-.25-.039-.243-.05-.235-.064-.234-.075-.229-.082-.222-.036-.083-.06-.134-.104-.208-.115-.202-.125-.199-.135-.192-.143-.181-.153-.178-.161-.171-.17-.161-.18-.155-.19-.146-.195-.137-.203-.13-.214-.123-.218-.114-.228-.105-.235-.096-.244-.085-.196-.058-.054-.016-.254-.069-.264-.058-.268-.045-.275-.037-.283-.027-.285-.017-.293-.003H0v15.779h3.669v-5.677h2.535l.293-.004.285-.017.282-.027.275-.034.268-.048.265-.054.254-.069.25-.074.243-.085.235-.093.229-.103.217-.113.214-.12.203-.13.196-.136.19-.145.178-.154.171-.161.161-.171.154-.174.142-.184.136-.188.125-.199.114-.202.103-.212.057-.13.039-.085.082-.223.075-.23.065-.235zm-3.542-.975-.043.243-.067.226-.097.208-.12.195-.143.174-.164.16-.19.137-.207.12-.224.103-.246.078-.26.058-.279.035-.289.01H3.696v-4.028h2.138l.29.014.277.034.261.054.246.079.224.1.207.115.19.14.164.161.142.178.121.194.097.213.067.233.043.246.015.264z"/><path fill="#fff" d="m32.768 19.107-.196-.188-.19-.192-.185-.195-.178-.198-.175-.205-.17-.208-.165-.213-.161-.215-.157-.219-.147-.222-.146-.23-.139-.229-.131-.233-2.007 4.648-2.809-5.923h-3.953l4.859 9.572L24.09 30.4h3.717l5.158-11.11zm-10.628 6.74-.033-.273-.028-.335-.018-.334-.004-.048-.01-.421v-5.427l-.005-.209-.014-.223-.022-.222-.036-.22-.043-.214-.054-.213-.064-.204-.037-.103-.039-.1-.086-.198-.096-.194-.108-.184-.12-.182-.133-.174-.142-.167-.157-.161-.168-.155-.179-.146-.196-.137-.207-.126-.222-.12-.233-.11-.245-.098-.265-.09-.276-.078-.293-.068-.303-.054-.322-.045-.336-.035-.35-.017-.363-.006-.371.006-.354.025-.338.041-.326.058-.31.068-.293.083-.282.095-.265.105-.254.116-.24.13-.221.137-.211.144-.196.155-.186.16-.168.168-.157.171-.146.174-.13.181-.118.182-.107.184-.093.188-.082.184-.067.188-.057.184-.043.184-.032.182-.021.178 3.066.599.033-.223.064-.22.093-.212.125-.198.15-.184.182-.163.207-.145.24-.116.264-.088.296-.055.32-.02.354.02.31.058.272.09.233.123.19.144.146.171.107.184.065.203.021.212-.025.215-.089.188-.157.157-.235.12-.328.075-2.72.4-.268.045-.265.054-.257.068-.245.079-.244.089-.232.103-.222.113-.21.124-.201.136-.19.147-.174.157-.164.171-.147.182-.136.194-.118.205-.103.215-.082.23-.068.239-.05.25-.031.264-.007.272.007.23.025.225.039.223.056.219.076.215.086.208.103.202.121.199.132.188.15.177.164.174.18.161.191.15.203.141.222.13.235.116.246.103.26.089.276.075.285.057.3.046.31.024.326.01.32-.01.311-.027.296-.045.282-.062.268-.078.256-.096.24-.11.228-.123.211-.14.2-.15.182-.162.168-.173.153-.185.136-.194.01.41.026.329.032.246.029.167.021.093h3.181l-.017-.105-.029-.195zm-3.531-4.039-.015.349-.047.311-.075.281-.1.246-.12.215-.147.184-.162.157-.178.13-.193.11-.203.082-.21.062-.218.045-.222.025-.224.006-.34-.024-.284-.072-.24-.11-.189-.144-.142-.171-.1-.192-.056-.209-.018-.215.026-.27.075-.233.114-.199.158-.16.192-.13.222-.104.246-.074.267-.054 2.184-.333z"/><path fill="#fda30c" fill-rule="evenodd" d="M37.496 5.824h-2.803v12.192h2.803zm10.712 4.678c0 2.582-2.185 4.676-4.881 4.676s-4.881-2.094-4.881-4.676 2.185-4.677 4.881-4.677 4.881 2.094 4.881 4.677" clip-rule="evenodd"/><path fill="#fff" d="m40.12 30.382-1.952-5.691h.958l1.468 4.382h-.254l1.434-4.382h.679l1.434 4.382h-.254L45.1 24.69h.958l-1.951 5.691h-.679l-1.442-4.374h.254l-1.442 4.374zm7.952.081q-.595 0-1.078-.273a2.1 2.1 0 0 1-.768-.735 1.94 1.94 0 0 1-.285-1.033q0-.569.285-1.025.284-.454.768-.727a2.16 2.16 0 0 1 1.078-.273c.396 0 .763.089 1.085.268q.484.267.768.727t.285 1.03q0 .569-.285 1.032t-.767.735a2.2 2.2 0 0 1-1.086.273zm0-.861q.346 0 .615-.15.268-.15.415-.42.149-.268.148-.61 0-.341-.152-.6a1.1 1.1 0 0 0-.415-.412 1.2 1.2 0 0 0-.611-.15c-.233 0-.43.05-.607.15q-.267.15-.415.411-.15.26-.149.601 0 .343.15.61.148.27.414.42.268.15.607.15m2.908.78v-3.903h.934v3.903zm.934-2.17-.322-.155q0-.74.344-1.2t1.039-.459q.306 0 .551.106.246.105.458.341l-.611.601a.64.64 0 0 0-.246-.162 1 1 0 0 0-.315-.049.9.9 0 0 0-.645.236q-.255.236-.254.74zm2.522 2.17v-5.853h.934v5.853zm3.674.081q-.552 0-.998-.268a1.94 1.94 0 0 1-.704-.727 2.05 2.05 0 0 1-.26-1.029c0-.38.086-.73.26-1.037q.258-.46.704-.73.445-.273.997-.274.467 0 .828.19.36.192.573.525.211.334.212.756v1.121q0 .423-.208.756t-.573.524q-.364.19-.832.19zm.153-.846q.348 0 .607-.15.258-.15.403-.419.144-.268.144-.618t-.144-.618a1.05 1.05 0 0 0-.403-.419q-.26-.15-.607-.15c-.233 0-.426.05-.599.15q-.257.15-.407.419t-.149.618q0 .35.15.618.147.268.406.419t.599.15m2.028.764h-.934v-1.048l.16-.952-.16-.942v-2.91h.934zM.316 41.293v-3.559H.67l.15.564v2.995zm2.57 0L.606 38.38l.064-.646 2.286 2.913zm0 0-.15-.528v-3.03h.502v3.558zm2.302.05q-.369 0-.669-.168a1.3 1.3 0 0 1-.476-.459 1.2 1.2 0 0 1-.176-.649c0-.24.06-.448.176-.638a1.33 1.33 0 0 1 1.145-.624c.246 0 .476.056.678.166q.302.167.478.454t.176.641a1.24 1.24 0 0 1-.654 1.107 1.36 1.36 0 0 1-.678.169zm0-.445q.247 0 .434-.108a.8.8 0 0 0 .295-.295.85.85 0 0 0 .107-.429.8.8 0 0 0-.404-.71.9.9 0 0 0-.432-.106.8.8 0 0 0-.423.105.76.76 0 0 0-.294.29.8.8 0 0 0-.108.421c0 .158.036.304.108.429q.106.187.294.295a.83.83 0 0 0 .423.108m3.062.395v-3.559h.503v3.56zm.337 0v-.42h1.124q.321 0 .502-.182a.6.6 0 0 0 .182-.44.59.59 0 0 0-.313-.536.73.73 0 0 0-.362-.084H8.586v-.421h1.06q.274 0 .432-.135.158-.136.158-.393 0-.256-.166-.393-.165-.135-.445-.135H8.586v-.421h1.055q.363 0 .607.126a.9.9 0 0 1 .37.331.85.85 0 0 1 .126.45q0 .289-.162.503a1.07 1.07 0 0 1-.479.338l.043-.154q.36.123.56.372.2.25.2.587a.9.9 0 0 1-.146.508q-.145.225-.415.361t-.661.137zm4.068.05q-.369 0-.67-.168a1.3 1.3 0 0 1-.475-.459 1.23 1.23 0 0 1-.176-.649c0-.24.06-.448.176-.638q.176-.285.476-.455t.67-.169c.245 0 .475.056.676.166q.303.167.479.454.177.288.176.641c0 .236-.06.456-.176.649a1.3 1.3 0 0 1-.479.458 1.36 1.36 0 0 1-.677.169zm0-.445q.247 0 .434-.108a.8.8 0 0 0 .294-.295.85.85 0 0 0 .108-.429.8.8 0 0 0-.405-.71.86.86 0 0 0-.43-.106.8.8 0 0 0-.424.105.77.77 0 0 0-.295.29.8.8 0 0 0-.107.421c0 .158.036.304.107.429q.108.187.295.295a.83.83 0 0 0 .423.108m1.868.395v-2.436h.482v2.436zm.482-1.384-.182-.082q0-.468.225-.745.224-.276.647-.277.194 0 .349.065.155.063.288.212l-.315.313a.5.5 0 0 0-.4-.154.6.6 0 0 0-.44.163q-.172.165-.172.502zm2.655 1.434a1.2 1.2 0 0 1-1.068-.619 1.3 1.3 0 0 1-.162-.646q0-.36.162-.647.165-.288.443-.456.277-.169.626-.168.288 0 .518.116a1 1 0 0 1 .373.318.9.9 0 0 1 .158.468v.734a.9.9 0 0 1-.155.466.96.96 0 0 1-.37.321 1.15 1.15 0 0 1-.524.116zm.081-.436q.24 0 .424-.108a.76.76 0 0 0 .283-.295.9.9 0 0 0 .102-.429.9.9 0 0 0-.102-.434.76.76 0 0 0-.707-.403.8.8 0 0 0-.423.106.76.76 0 0 0-.286.292.9.9 0 0 0-.105.434.9.9 0 0 0 .105.436q.104.191.289.295.185.105.42.106m1.264.385h-.487v-.657l.092-.595-.092-.59v-1.82h.487zm1.878.051q-.385 0-.688-.166a1.3 1.3 0 0 1-.48-.453 1.2 1.2 0 0 1-.176-.651c0-.244.058-.455.173-.647a1.25 1.25 0 0 1 .472-.453q.297-.165.667-.166c.23 0 .44.051.62.154q.273.154.427.427a1.24 1.24 0 0 1 .126.862h-2.146v-.385h1.89l-.177.15a.9.9 0 0 0-.091-.419.65.65 0 0 0-.257-.266.8.8 0 0 0-.402-.096.9.9 0 0 0-.434.103.7.7 0 0 0-.289.287.9.9 0 0 0-.102.437q0 .254.108.45a.73.73 0 0 0 .305.297.96.96 0 0 0 .454.105q.214 0 .394-.072a.8.8 0 0 0 .308-.215l.31.303q-.187.204-.45.313a1.5 1.5 0 0 1-.562.108zm1.691-.05v-2.436h.481v2.436zm.481-1.384-.181-.082q0-.468.224-.745.225-.276.648-.277.194 0 .348.065.155.063.29.212l-.317.313a.5.5 0 0 0-.4-.154.6.6 0 0 0-.44.163q-.171.165-.172.502zm2.422 1.434q-.214 0-.407-.054a1.3 1.3 0 0 1-.351-.154 1.2 1.2 0 0 1-.276-.238l.31-.298q.14.164.322.244t.407.08.348-.075a.23.23 0 0 0 .124-.208.24.24 0 0 0-.1-.207.9.9 0 0 0-.253-.123 9 9 0 0 0-.33-.096 2 2 0 0 1-.329-.123.7.7 0 0 1-.254-.213.6.6 0 0 1-.1-.356q0-.22.11-.383a.7.7 0 0 1 .314-.248q.204-.088.486-.088.3 0 .533.1a.94.94 0 0 1 .383.3l-.31.298a.77.77 0 0 0-.622-.277.6.6 0 0 0-.318.072q-.11.071-.11.19a.22.22 0 0 0 .096.189q.098.066.254.113l.33.095q.171.048.326.132a.7.7 0 0 1 .254.22q.1.14.1.364 0 .344-.254.544-.255.2-.683.2m1.503.514.332-.61.172-.041a.3.3 0 0 1-.07.092.15.15 0 0 1-.096.036.3.3 0 0 1-.206-.09.3.3 0 0 1-.094-.222q0-.15.102-.249a.35.35 0 0 1 .257-.1q.14 0 .246.1.107.1.107.248a.5.5 0 0 1-.024.137 1 1 0 0 1-.094.207l-.359.636zm3.175-.514q-.32 0-.565-.12a1.16 1.16 0 0 1-.404-.326l.358-.313a.7.7 0 0 0 .254.22.74.74 0 0 0 .34.077.7.7 0 0 0 .332-.077.55.55 0 0 0 .228-.228.8.8 0 0 0 .083-.372v-2.472h.503v2.446q0 .353-.147.616a1.06 1.06 0 0 1-.402.405q-.255.145-.58.144m2.901-.01q-.318 0-.565-.131a.95.95 0 0 1-.388-.372 1.1 1.1 0 0 1-.14-.56v-1.414h.482v1.394a.8.8 0 0 0 .073.346.5.5 0 0 0 .211.223.66.66 0 0 0 .327.078q.283 0 .444-.172t.162-.474v-1.394h.48v1.415q0 .318-.139.559a.96.96 0 0 1-.386.372 1.2 1.2 0 0 1-.561.131zm2.542.01q-.213 0-.407-.054a1.3 1.3 0 0 1-.351-.154 1.2 1.2 0 0 1-.276-.238l.31-.298q.14.164.322.244t.407.08.348-.075a.23.23 0 0 0 .124-.208.24.24 0 0 0-.1-.207.9.9 0 0 0-.253-.123 9 9 0 0 0-.33-.096 2 2 0 0 1-.329-.123.7.7 0 0 1-.254-.213.6.6 0 0 1-.1-.356q0-.22.11-.383a.7.7 0 0 1 .314-.248q.204-.088.486-.088.3 0 .533.1a.94.94 0 0 1 .383.3l-.31.298a.77.77 0 0 0-.622-.277.6.6 0 0 0-.318.072q-.11.071-.11.19a.22.22 0 0 0 .096.189q.098.066.254.113l.33.095q.171.048.326.132a.7.7 0 0 1 .254.22q.1.14.1.364 0 .344-.254.544-.255.2-.683.2m1.242-2.066v-.421h1.734v.42zm.626 2.015v-3.456h.481v3.456zm2.772.001v-3.559h.503v3.56zm.338 0v-.42h1.123q.321 0 .503-.182a.6.6 0 0 0 .181-.44.59.59 0 0 0-.313-.536.73.73 0 0 0-.361-.084h-1.135v-.421h1.06q.273 0 .43-.135.16-.136.16-.393 0-.256-.167-.393a.68.68 0 0 0-.444-.135h-1.039v-.421h1.055q.363 0 .608.126a.9.9 0 0 1 .37.331.85.85 0 0 1 .126.45q0 .289-.163.503a1.07 1.07 0 0 1-.478.338l.043-.154q.359.123.559.372.2.25.2.587a.9.9 0 0 1-.145.508q-.145.225-.416.361-.27.136-.66.137zm3.941.04q-.318 0-.565-.131a.95.95 0 0 1-.388-.372 1.1 1.1 0 0 1-.14-.56v-1.414h.482v1.394a.8.8 0 0 0 .073.346.5.5 0 0 0 .21.223.66.66 0 0 0 .328.078q.284 0 .444-.172.162-.172.162-.474v-1.394h.48v1.415q0 .318-.139.559a.96.96 0 0 1-.386.372 1.2 1.2 0 0 1-.562.131zm2.542.01q-.214 0-.407-.054a1.3 1.3 0 0 1-.351-.154 1.2 1.2 0 0 1-.276-.238l.31-.298q.14.164.322.244t.407.08.348-.075a.23.23 0 0 0 .124-.208.24.24 0 0 0-.1-.207.9.9 0 0 0-.253-.123 9 9 0 0 0-.33-.096 2 2 0 0 1-.329-.123.7.7 0 0 1-.254-.213.6.6 0 0 1-.1-.356q0-.22.11-.383a.7.7 0 0 1 .314-.248q.204-.088.486-.088.3 0 .533.1a.94.94 0 0 1 .383.3l-.31.298a.77.77 0 0 0-.622-.277.6.6 0 0 0-.318.072q-.11.071-.11.19a.22.22 0 0 0 .096.189q.098.066.254.113l.33.095q.171.048.326.132a.7.7 0 0 1 .254.22q.1.14.1.364 0 .344-.254.544-.255.2-.683.2m1.723-2.974a.3.3 0 0 1-.22-.085.28.28 0 0 1-.085-.212c0-.085.028-.151.086-.208a.3.3 0 0 1 .219-.085q.133 0 .219.085a.28.28 0 0 1 .086.208.29.29 0 0 1-.305.297m-.246 2.923v-2.436h.486v2.436zm1.198.001v-2.436h.481v2.436zm1.793 0v-1.42a.62.62 0 0 0-.18-.456.63.63 0 0 0-.468-.179.7.7 0 0 0-.342.083.61.61 0 0 0-.322.553l-.197-.108q0-.277.129-.492a.9.9 0 0 1 .359-.34q.23-.127.519-.127t.51.139.351.362.13.474v1.513h-.487zm2.32.05q-.386 0-.689-.166a1.27 1.27 0 0 1-.478-.453 1.2 1.2 0 0 1-.176-.651c0-.244.058-.455.173-.647q.174-.287.47-.453.297-.165.667-.166.35 0 .621.154.273.154.426.427a1.24 1.24 0 0 1 .125.862H52.84v-.385h1.89l-.176.15a.9.9 0 0 0-.092-.419.65.65 0 0 0-.257-.266.8.8 0 0 0-.401-.096.9.9 0 0 0-.433.103.7.7 0 0 0-.29.287.9.9 0 0 0-.101.437q0 .254.107.45a.73.73 0 0 0 .305.297.96.96 0 0 0 .454.105q.215 0 .394-.072a.8.8 0 0 0 .308-.215l.31.303q-.186.204-.45.313a1.5 1.5 0 0 1-.562.108zm2.499 0q-.213 0-.407-.054a1.3 1.3 0 0 1-.351-.154 1.2 1.2 0 0 1-.276-.238l.311-.298q.14.164.321.244.182.079.407.08.225 0 .349-.075a.23.23 0 0 0 .123-.208.24.24 0 0 0-.1-.207.9.9 0 0 0-.253-.123 9 9 0 0 0-.33-.096 2 2 0 0 1-.329-.123.7.7 0 0 1-.254-.213.6.6 0 0 1-.1-.356.66.66 0 0 1 .11-.383.7.7 0 0 1 .314-.248q.204-.088.486-.088.3 0 .533.1a.94.94 0 0 1 .383.3l-.31.298a.77.77 0 0 0-.622-.277.6.6 0 0 0-.318.072q-.11.071-.11.19a.22.22 0 0 0 .096.189q.098.066.254.113l.33.095q.171.048.326.132a.7.7 0 0 1 .254.22q.1.14.1.364 0 .344-.254.544-.255.2-.683.2m2.285 0q-.213 0-.407-.054a1.3 1.3 0 0 1-.35-.154 1.2 1.2 0 0 1-.276-.238l.31-.298q.14.164.321.244.182.079.407.08.226 0 .349-.075a.23.23 0 0 0 .123-.208.24.24 0 0 0-.1-.207.9.9 0 0 0-.253-.123 9 9 0 0 0-.33-.096 2 2 0 0 1-.329-.123.7.7 0 0 1-.254-.213.6.6 0 0 1-.1-.356q0-.22.111-.383a.7.7 0 0 1 .313-.248q.205-.088.487-.088.3 0 .532.1a.94.94 0 0 1 .383.3l-.31.298a.77.77 0 0 0-.622-.277.6.6 0 0 0-.318.072q-.109.071-.11.19a.22.22 0 0 0 .097.189q.096.066.254.113l.329.095q.171.048.327.132a.74.74 0 0 1 .253.22q.1.14.1.364 0 .344-.254.544-.255.2-.683.2"/></g><defs><clipPath id="a"><path fill="#fff" d="M0 0h60.289v42H0z"/></clipPath></defs></svg>