<svg xmlns="http://www.w3.org/2000/svg" width="25" height="25" fill="none" viewBox="0 0 25 25"><path fill="#000" d="M24.5 8.98a1.044 1.044 0 0 0-1.292-.71 1.05 1.05 0 0 0-.708 1.293c.281.947.417 1.927.417 2.927 0 5.74-4.677 10.416-10.417 10.416S2.083 18.23 2.083 12.49 6.76 2.073 12.5 2.073c1.646 0 3.23.375 4.688 1.115a1.04 1.04 0 0 0 .938-1.854A12.4 12.4 0 0 0 12.499 0C5.604 0 0 5.604 0 12.5S5.604 25 12.5 25 25 19.396 25 12.5a12.4 12.4 0 0 0-.5-3.51z"/><path fill="#000" d="M12.561 12.802c-1.427-1.76-3.541-3.177-3.656-3.25a1.043 1.043 0 0 0-1.448.292 1.043 1.043 0 0 0 .292 1.448c.802.541 3.062 2.26 3.812 3.77.167.323.48.542.834.573h.094c.322 0 .635-.156.833-.416.062-.084 6.156-8.157 10.052-10.115.51-.26.719-.885.469-1.396a1.053 1.053 0 0 0-1.396-.469c-3.417 1.709-7.98 7.157-9.886 9.573z"/></svg>