<svg xmlns="http://www.w3.org/2000/svg" width="29" height="29" fill="none" viewBox="0 0 29 29"><path fill="#000" fill-rule="evenodd" d="M5.106 13.198a.382.382 0 0 1-.762.054C3.83 6.068 9.494 0 16.655 0 23.473 0 29 5.527 29 12.344c0 7.163-6.07 12.826-13.253 12.311a.381.381 0 1 1 .055-.761c2.518.18 4.94-.443 6.996-1.731h-7.022a.383.383 0 0 1 0-.764h8.1c2.4-1.916 3.948-4.7 4.29-7.759h-8.588a2.193 2.193 0 0 0-2.186 2.188c0 .472.136.667.136.818a.383.383 0 0 1-.383.383h-1.368a.383.383 0 0 1 0-.765h.883c-.269-1.757 1.11-3.388 2.918-3.388h8.647a11.6 11.6 0 0 0-.838-4.89h-5.925a2.52 2.52 0 0 1-2.516-2.516 2.52 2.52 0 0 1 2.516-2.516h1.968C18.552-.572 11.79.242 7.872 4.798h3.654a2.526 2.526 0 0 1 2.499 2.814h1.02a2.52 2.52 0 0 1 2.517 2.516 2.52 2.52 0 0 1-2.516 2.515l-9.968.002zm4.754 2.088v4.23c0 .34-.427.53-.678.241l-1.795-1.929-1.812 1.948a.383.383 0 0 1-.662-.26v-4.23H2.16A1.4 1.4 0 0 0 .766 16.68v10.162a1.4 1.4 0 0 0 1.394 1.394h10.163a1.4 1.4 0 0 0 1.394-1.394l-.001-10.162a1.4 1.4 0 0 0-1.395-1.394l-2.46.001zm-4.183 0v3.258l1.43-1.537a.38.38 0 0 1 .559 0l1.429 1.537.001-3.258zm1.945 7.524h.897c.29 0 .477-.318.33-.572L7.57 20.026a.381.381 0 0 0-.662-.003l-1.26 2.183a.382.382 0 0 0 .31.604h.898v2.805a.383.383 0 0 0 .765 0zm.237-.765-.62-1.072-.619 1.072zm-5.7-7.523C.97 14.522 0 15.492 0 16.68v10.162C0 28.03.97 29 2.158 29h10.163c1.188 0 2.158-.97 2.158-2.158V16.68c0-1.188-.97-2.158-2.158-2.158zm5.11-8.958a11.5 11.5 0 0 0-2.184 6.317h9.96c.962 0 1.752-.79 1.752-1.752s-.79-1.752-1.752-1.752h-1.498a.382.382 0 0 1-.361-.504 1.754 1.754 0 0 0-1.66-2.31zM24.38 3.717h-2.916c-.962 0-1.752.79-1.752 1.751 0 .962.79 1.752 1.752 1.752h5.58a11.6 11.6 0 0 0-2.664-3.503" clip-rule="evenodd"/></svg>