<svg xmlns="http://www.w3.org/2000/svg" width="24" height="24" fill="none" viewBox="0 0 24 24"><circle cx="12" cy="12" r="12" fill="#ef1a23"/><path fill="#fff" d="M12.005 9.84a2.16 2.16 0 1 0 0 4.32 2.16 2.16 0 0 0 0-4.32m0-1.44a3.6 3.6 0 1 1 0 7.2 3.6 3.6 0 0 1 0-7.2m4.68-.18a.9.9 0 1 1-1.8 0 .9.9 0 0 1 1.8 0m-4.68-1.98c-1.78 0-2.072.005-2.9.042-.565.026-.944.102-1.295.239-.294.108-.56.28-.778.506a2.1 2.1 0 0 0-.507.777c-.136.353-.212.731-.238 1.295-.037.795-.042 1.073-.042 2.9 0 1.783.005 2.073.041 2.902.027.563.103.943.239 1.294a2.1 2.1 0 0 0 .505.777c.243.242.468.387.778.506.355.138.734.214 1.296.24.795.038 1.073.042 2.9.042 1.783 0 2.073-.005 2.902-.042.563-.027.941-.102 1.293-.238.294-.108.56-.282.778-.506.243-.242.387-.468.507-.778.137-.354.213-.733.239-1.296.037-.794.042-1.073.042-2.9 0-1.781-.005-2.072-.042-2.901-.027-.563-.103-.943-.24-1.295a2.1 2.1 0 0 0-.505-.777 2.1 2.1 0 0 0-.778-.507c-.353-.137-.731-.213-1.294-.238-.795-.038-1.072-.042-2.901-.042m0-1.44c1.956 0 2.2.007 2.968.043.766.036 1.289.156 1.748.335.475.183.875.43 1.276.83.366.36.65.795.83 1.276.177.458.298.981.334 1.748.034.767.044 1.012.044 2.968s-.007 2.2-.043 2.968c-.037.767-.157 1.288-.335 1.748a3.5 3.5 0 0 1-.83 1.276 3.5 3.5 0 0 1-1.276.83c-.459.178-.982.299-1.748.335-.768.033-1.012.043-2.968.043-1.957 0-2.2-.007-2.969-.043-.766-.036-1.288-.157-1.747-.335a3.5 3.5 0 0 1-1.276-.83 3.5 3.5 0 0 1-.83-1.276c-.179-.459-.3-.982-.335-1.748-.035-.768-.043-1.012-.043-2.968s.007-2.2.043-2.968.156-1.289.335-1.748c.18-.48.464-.916.83-1.276.36-.366.795-.65 1.276-.83.458-.179.98-.299 1.747-.335.77-.034 1.013-.043 2.97-.043"/></svg>