<svg xmlns="http://www.w3.org/2000/svg" width="24" height="24" fill="none" viewBox="0 0 24 24"><circle cx="12" cy="12" r="12" fill="#ef1a23"/><path fill="#fff" d="M8.35 8.28v9.718H5V8.28zm.214-3.002.001.06c0 .449-.198.853-.513 1.136H8.05a1.9 1.9 0 0 1-.64.374 2 2 0 0 1-.741.107h.004-.02a1.9 1.9 0 0 1-.722-.109 1.8 1.8 0 0 1-.621-.372 1.6 1.6 0 0 1-.383-.547 1.55 1.55 0 0 1-.123-.651v.002-.041c0-.457.201-.869.522-1.157h.001c.373-.329.866-.5 1.37-.478h-.004a1.9 1.9 0 0 1 1.352.476c.163.152.294.335.383.537.09.203.135.42.135.64v.026zm11.84 7.151V18h-3.34v-5.2a2.75 2.75 0 0 0-.42-1.625l.007.012a1.43 1.43 0 0 0-.565-.455 1.5 1.5 0 0 0-.724-.128h.005a1.68 1.68 0 0 0-1.075.34l.004-.002c-.281.22-.502.503-.641.825l-.005.014a2.2 2.2 0 0 0-.111.799v-.005V18h-3.34q.02-3.914.02-6.346t-.01-2.903l-.01-.47h3.34v1.411h-.02a4 4 0 0 1 .421-.554l-.005.005q.262-.277.564-.502l.01-.007a2.7 2.7 0 0 1 .865-.423l.018-.004a4 4 0 0 1 1.116-.152h.05-.003a3.7 3.7 0 0 1 1.522.259c.482.191.915.482 1.269.851l.002.002q1.056 1.114 1.057 3.262z"/></svg>