<svg xmlns="http://www.w3.org/2000/svg" width="29" height="29" fill="none" viewBox="0 0 29 29"><path fill="#000" fill-rule="evenodd" d="M26.91 16.623a12.43 12.43 0 0 0-9.426-12.816.347.347 0 0 1 .165-.673A13.12 13.12 0 0 1 27.6 16.666a.344.344 0 0 1-.345.325h-.02a.344.344 0 0 1-.325-.367M11.287 3.15a13.2 13.2 0 0 0-6.933 4.4 13 13 0 0 0-2.968 7.784c-.008.19.14.351.332.359h.014c.186 0 .34-.146.346-.332a12.5 12.5 0 0 1 9.376-11.54.347.347 0 0 0 .095-.634.35.35 0 0 0-.263-.037m10.77 22.596a12.32 12.32 0 0 1-7.558 2.561c-2.017 0-4.002-.49-5.787-1.427a.34.34 0 0 0-.266-.024.345.345 0 0 0-.058.638A13.16 13.16 0 0 0 14.499 29a13 13 0 0 0 7.98-2.704.347.347 0 0 0-.422-.55m-2.831-9.87a4.725 4.725 0 0 1-2.918 4.368 4.725 4.725 0 0 1-5.153-1.025 4.728 4.728 0 1 1 8.07-3.343m-.693 0a4.033 4.033 0 1 0-8.066 0 4.033 4.033 0 0 0 8.066 0m-1.136-1.456c0 .246-.097.48-.27.653l-2.903 2.904v.001a.95.95 0 0 1-.806.272.94.94 0 0 1-.707-.47l-.988-1.71h.002a.927.927 0 0 1 1.604-.927l.406.704 2.081-2.083a.925.925 0 0 1 1.581.656m-.692 0a.23.23 0 0 0-.068-.165.237.237 0 0 0-.33 0l-2.402 2.401a.34.34 0 0 1-.29.099.35.35 0 0 1-.255-.17l-.632-1.094a.235.235 0 0 0-.318-.086.233.233 0 0 0-.085.317l.988 1.71h-.002a.27.27 0 0 0 .197.132.28.28 0 0 0 .225-.076l2.904-2.903v-.002a.23.23 0 0 0 .068-.163M29 20.582v1.524a.346.346 0 0 1-.28.34l-.738.146-.262.63.42.626v.001a.35.35 0 0 1-.043.439l-1.078 1.078a.35.35 0 0 1-.438.042l-.625-.42-.631.263-.146.737h-.001a.346.346 0 0 1-.34.28h-1.525a.35.35 0 0 1-.34-.28l-.145-.737-.631-.263-.625.42a.35.35 0 0 1-.439-.043l-1.077-1.077v-.002a.346.346 0 0 1-.044-.437l.419-.624-.262-.632-.738-.145v-.002a.35.35 0 0 1-.278-.34v-1.524c0-.165.116-.308.278-.34l.738-.146.262-.63-.42-.625v-.002a.346.346 0 0 1 .045-.437l1.077-1.078a.346.346 0 0 1 .439-.043l.625.419.63-.262.146-.738a.35.35 0 0 1 .34-.28h1.525c.166 0 .309.118.34.28l.145.738.631.262.625-.42h.002a.346.346 0 0 1 .438.044l1.078 1.078c.116.117.134.3.042.437l-.42.625.263.63.738.146v.002c.164.032.28.175.28.34m-.693.285-.64-.126a.35.35 0 0 1-.255-.208l-.404-.974a.35.35 0 0 1 .032-.325l.364-.544-.674-.675-.544.365h.001a.35.35 0 0 1-.325.032l-.974-.405h-.002a.35.35 0 0 1-.207-.252l-.126-.64h-.955l-.126.64a.34.34 0 0 1-.207.252l-.975.405a.35.35 0 0 1-.325-.032l-.544-.364-.674.674.364.544a.34.34 0 0 1 .032.325l-.405.974a.35.35 0 0 1-.252.208l-.64.126v.955l.64.126c.113.022.209.1.252.207l.405.974a.35.35 0 0 1-.032.327l-.364.544.674.673.544-.364a.35.35 0 0 1 .325-.033l.975.405c.107.044.186.14.207.252l.126.641h.955l.126-.64a.35.35 0 0 1 .207-.253l.974-.405h.002a.35.35 0 0 1 .325.033l.544.364.675-.675-.366-.542a.35.35 0 0 1-.032-.327l.404-.974a.35.35 0 0 1 .255-.207l.64-.126zm-1.53.477a2.7 2.7 0 1 1-5.4 0 2.7 2.7 0 0 1 5.4 0m-.695 0a2.005 2.005 0 0 0-3.424-1.419 2.007 2.007 0 1 0 3.424 1.42M.71 16h5.598c.09 0 .18.037.244.102l1.878 1.877v-.001a.35.35 0 0 1 .1.246v7.756a.71.71 0 0 1-.71.71H.71a.71.71 0 0 1-.71-.71v-9.27c0-.39.319-.71.71-.71m7.127 9.98v-7.41H6.691a.73.73 0 0 1-.731-.73v-1.145H.709l.001-.002a.02.02 0 0 0-.018.018v9.269a.02.02 0 0 0 .018.018h7.11q.015-.003.017-.018m-1.183-8.14c0 .02.016.036.037.038h.656l-.693-.693zm-.276 2.37H2.154a.346.346 0 1 0 0 .693h4.224a.347.347 0 0 0 0-.693m0 1.75H2.154a.347.347 0 0 0 0 .693h4.224a.346.346 0 0 0 0-.693m0 1.752-4.224-.002a.348.348 0 0 0 0 .694h4.224a.346.346 0 0 0 0-.694zM11.804 5.1a39 39 0 0 1 1.269-.411 2.562 2.562 0 1 1 2.854 0c.355.105.766.24 1.27.41l.871.292-.001-.002a2.13 2.13 0 0 1 1.53 2.012v2.1a.347.347 0 0 1-.347.347h-9.5a.347.347 0 0 1-.346-.347v-2.1a2.13 2.13 0 0 1 1.53-2.012q.479-.158.87-.29M14.5 4.43a1.867 1.867 0 0 0 1.32-3.19 1.867 1.867 0 0 0-3.19 1.321 1.873 1.873 0 0 0 1.87 1.87m-2.476 1.326a66 66 0 0 1-.876.29h.002a1.43 1.43 0 0 0-1.053 1.354v1.754h8.805l.001-1.754a1.43 1.43 0 0 0-1.053-1.353l-.876-.291c-2.474-.83-2.474-.83-4.95 0" clip-rule="evenodd"/></svg>