<svg xmlns="http://www.w3.org/2000/svg" width="30" height="29" fill="none" viewBox="0 0 30 29"><path fill="#000" fill-rule="evenodd" d="M15.934 8.093a.457.457 0 0 1-.457-.457V6.472h-1.943v1.164a.457.457 0 0 1-.913 0v-1.62c0-.252.205-.457.457-.457h2.848c.252 0 .456.205.456.456v1.621a.455.455 0 0 1-.448.457m0 15.328h-2.849a.457.457 0 0 1-.456-.456v-1.621a.457.457 0 0 1 .913 0v1.164h1.943v-1.164a.457.457 0 0 1 .913 0v1.62a.474.474 0 0 1-.464.457m-7.28-12.314a.47.47 0 0 1-.323-.134l-1.148-1.15a.456.456 0 0 1 0-.636l2.014-2.015a.456.456 0 0 1 .637 0l1.15 1.149a.456.456 0 0 1 0 .637.456.456 0 0 1-.638 0l-.826-.826L8.143 9.51l.826.826a.456.456 0 0 1 0 .638.46.46 0 0 1-.315.133M19.49 21.95a.47.47 0 0 1-.323-.134l-1.14-1.149a.456.456 0 0 1 0-.637.456.456 0 0 1 .637 0l.826.826 1.377-1.377-.826-.826a.456.456 0 0 1 0-.638.456.456 0 0 1 .637 0l1.149 1.149a.456.456 0 0 1 0 .637l-2.015 2.015a.46.46 0 0 1-.322.134M7.648 16.37H6.027a.457.457 0 0 1-.457-.456v-2.848c0-.252.205-.457.457-.457h1.62a.457.457 0 0 1 0 .913H6.484v1.944h1.165c.251 0 .456.204.456.456a.45.45 0 0 1-.456.449m15.335-.001h-1.621a.457.457 0 0 1 0-.912h1.164v-1.944h-1.164a.457.457 0 0 1 0-.912h1.62c.252 0 .457.204.457.456v2.848a.46.46 0 0 1-.456.465" clip-rule="evenodd"/><path fill="#000" fill-rule="evenodd" d="M7.648 16.37H6.027a.457.457 0 0 1-.457-.456v-2.848c0-.252.205-.457.457-.457h1.62a.457.457 0 0 1 0 .913H6.484v1.944h1.165c.251 0 .456.204.456.456a.45.45 0 0 1-.456.449m15.335-.001h-1.621a.457.457 0 0 1 0-.912h1.164v-1.944h-1.164a.457.457 0 0 1 0-.912h1.62c.252 0 .457.204.457.456v2.848a.46.46 0 0 1-.456.465M9.52 21.95a.46.46 0 0 1-.323-.134L7.183 19.8a.456.456 0 0 1 0-.637l1.148-1.149a.456.456 0 0 1 .638 0 .456.456 0 0 1 0 .638l-.826.826 1.377 1.377.826-.826a.456.456 0 0 1 .637 0 .456.456 0 0 1 0 .637l-1.14 1.149a.46.46 0 0 1-.323.134m10.843-10.842a.47.47 0 0 1-.322-.134.456.456 0 0 1 0-.638l.826-.826-1.377-1.377-.826.826a.456.456 0 0 1-.638 0 .456.456 0 0 1 0-.637l1.15-1.149a.456.456 0 0 1 .637 0l2.014 2.015a.45.45 0 0 1 .134.322.45.45 0 0 1-.134.323l-1.149 1.14a.46.46 0 0 1-.315.135" clip-rule="evenodd"/><path fill="#000" fill-rule="evenodd" d="M18.35 9.092a.5.5 0 0 1-.253-.07 6.4 6.4 0 0 0-2.258-.937.456.456 0 0 1-.354-.535.456.456 0 0 1 .535-.354c.92.189 1.786.55 2.573 1.07a.447.447 0 0 1 .126.63.44.44 0 0 1-.37.196m-10.701 4.43q-.047.002-.094-.008a.457.457 0 0 1-.354-.535c.189-.92.55-1.786 1.07-2.573a.447.447 0 0 1 .63-.126.447.447 0 0 1 .125.63 6.4 6.4 0 0 0-.936 2.258.45.45 0 0 1-.44.354m13.713 0a.45.45 0 0 1-.44-.362 6.4 6.4 0 0 0-.937-2.258.46.46 0 0 1 .126-.63.46.46 0 0 1 .63.126 7.5 7.5 0 0 1 1.07 2.573.456.456 0 0 1-.355.535c-.031.016-.062.016-.094.016M15.933 21.8a.45.45 0 0 1-.44-.362.456.456 0 0 1 .354-.535 6.4 6.4 0 0 0 2.258-.936.46.46 0 0 1 .63.126.46.46 0 0 1-.126.629 7.5 7.5 0 0 1-2.573 1.07c-.048.008-.079.008-.103.008m-7.278-3.014a.44.44 0 0 1-.377-.204 7.5 7.5 0 0 1-1.07-2.573.456.456 0 0 1 .354-.535.456.456 0 0 1 .535.354c.165.81.48 1.566.936 2.258a.46.46 0 0 1-.126.63.53.53 0 0 1-.252.07m4.43 3.014q-.047.002-.095-.008a7.3 7.3 0 0 1-2.573-1.07.447.447 0 0 1-.126-.63.447.447 0 0 1 .63-.125 6.4 6.4 0 0 0 2.258.936.456.456 0 0 1 .354.535.47.47 0 0 1-.448.362m7.279-3.014a.447.447 0 0 1-.378-.7 6.4 6.4 0 0 0 .937-2.258.456.456 0 0 1 .535-.354.456.456 0 0 1 .354.535 7.3 7.3 0 0 1-1.07 2.573.45.45 0 0 1-.378.204M10.67 9.092a.44.44 0 0 1-.378-.204.46.46 0 0 1 .126-.63 7.5 7.5 0 0 1 2.573-1.07.456.456 0 0 1 .535.354.456.456 0 0 1-.354.535 6.4 6.4 0 0 0-2.259.936.43.43 0 0 1-.244.08m3.841 9.693a4.27 4.27 0 0 1-3.038-1.259 4.27 4.27 0 0 1-1.26-3.037c0-1.149.45-2.227 1.26-3.037a4.27 4.27 0 0 1 3.037-1.26c1.149 0 2.227.45 3.038 1.26a4.27 4.27 0 0 1 1.258 3.037 4.27 4.27 0 0 1-1.258 3.037 4.3 4.3 0 0 1-3.038 1.26m0-7.68a3.39 3.39 0 0 0-3.384 3.384 3.39 3.39 0 0 0 3.383 3.384 3.39 3.39 0 0 0 3.384-3.384 3.39 3.39 0 0 0-3.384-3.383" clip-rule="evenodd"/><path fill="#000" fill-rule="evenodd" d="M13.982 16.017a.47.47 0 0 1-.323-.134l-1.055-1.055a.456.456 0 0 1 0-.637.456.456 0 0 1 .638 0l.732.732 1.786-1.786a.456.456 0 0 1 .637 0 .456.456 0 0 1 0 .637l-2.1 2.101a.42.42 0 0 1-.316.142M1.81 22.288a.457.457 0 0 1-.456-.456V5.536c0-2.18 1.77-3.95 3.95-3.95h17.578a.457.457 0 0 1 0 .912H5.312a3.053 3.053 0 0 0-3.046 3.046v16.288a.457.457 0 0 1-.456.456" clip-rule="evenodd"/><path fill="#000" fill-rule="evenodd" d="M21.292 4.088a.47.47 0 0 1-.322-.134.456.456 0 0 1 0-.637l1.274-1.275L20.97.767a.456.456 0 0 1 0-.637.456.456 0 0 1 .637 0l1.597 1.597a.45.45 0 0 1 .134.323.45.45 0 0 1-.134.322L21.607 3.97a.5.5 0 0 1-.315.118M1.81 24.995a1.81 1.81 0 1 1 0-3.62 1.81 1.81 0 0 1 0 3.62m0-2.707a.905.905 0 1 0 0 1.81.905.905 0 0 0 0-1.81m21.891 5.115H6.131a.457.457 0 0 1 0-.913h17.578a3.053 3.053 0 0 0 3.045-3.045V7.149a.457.457 0 0 1 .913 0v16.296a3.973 3.973 0 0 1-3.966 3.957" clip-rule="evenodd"/><path fill="#000" fill-rule="evenodd" d="M7.72 29a.47.47 0 0 1-.323-.134L5.8 27.27a.456.456 0 0 1 0-.638l1.597-1.597a.456.456 0 0 1 .637 0 .456.456 0 0 1 0 .637l-1.266 1.275 1.274 1.275a.456.456 0 0 1 0 .637.44.44 0 0 1-.322.142M27.202 7.605a1.81 1.81 0 1 1 0-3.62 1.81 1.81 0 0 1 0 3.62m0-2.707a.905.905 0 1 0 0 1.81.905.905 0 0 0 0-1.81" clip-rule="evenodd"/></svg>