<svg xmlns="http://www.w3.org/2000/svg" width="97" height="28" fill="none" viewBox="0 0 97 28"><path fill="#fff" stroke="#000" stroke-width=".5" d="M3.173 27.05h33.462c1.612 0 2.922-1.316 2.923-2.944V3.194A2.934 2.934 0 0 0 36.635.25H3.173A2.934 2.934 0 0 0 .25 3.194v20.912c0 1.628 1.31 2.945 2.923 2.945Z"/><path fill="#ed0006" fill-rule="evenodd" d="M20.131 7.4a7.76 7.76 0 0 0-5.107-1.917c-4.348 0-7.874 3.59-7.874 8.02s3.525 8.02 7.874 8.02a7.76 7.76 0 0 0 5.107-1.916 7.76 7.76 0 0 0 5.107 1.915c4.349 0 7.874-3.59 7.874-8.02 0-4.428-3.525-8.019-7.874-8.019A7.76 7.76 0 0 0 20.131 7.4" clip-rule="evenodd"/><path fill="#f9a000" fill-rule="evenodd" d="M20.13 7.4a8.06 8.06 0 0 1 2.767 6.103 8.06 8.06 0 0 1-2.766 6.104 7.76 7.76 0 0 0 5.107 1.915c4.349 0 7.874-3.59 7.874-8.02 0-4.428-3.526-8.019-7.874-8.019A7.76 7.76 0 0 0 20.131 7.4" clip-rule="evenodd"/><path fill="#ff5e00" fill-rule="evenodd" d="M20.132 19.607a8.06 8.06 0 0 0 2.766-6.104 8.06 8.06 0 0 0-2.766-6.104 8.06 8.06 0 0 0-2.767 6.104 8.06 8.06 0 0 0 2.767 6.104" clip-rule="evenodd"/><g clip-path="url(#a)"><path fill="#1434cb" d="M66.283 7.563 60 23.04h-4.1l-3.093-12.35c-.187-.761-.35-1.04-.922-1.36-.931-.522-2.47-1.012-3.825-1.316l.092-.45h6.6c.84 0 1.597.578 1.788 1.578l1.633 8.955L62.21 7.563zm16.065 10.423c.016-4.084-5.472-4.31-5.434-6.134.011-.555.524-1.146 1.645-1.296.556-.075 2.087-.133 3.824.692l.68-3.281c-.932-.35-2.133-.686-3.627-.686-3.834 0-6.532 2.103-6.555 5.115-.024 2.228 1.926 3.471 3.396 4.212 1.511.758 2.019 1.245 2.013 1.923-.01 1.038-1.206 1.496-2.323 1.514-1.95.031-3.08-.544-3.982-.977l-.703 3.39c.906.43 2.579.804 4.313.823 4.075 0 6.74-2.078 6.753-5.295M92.47 23.04h3.588L92.927 7.563h-3.31c-.745 0-1.373.448-1.651 1.136l-5.82 14.34h4.072l.81-2.312h4.975zm-4.327-5.484 2.041-5.81 1.175 5.81zM71.825 7.563 68.618 23.04h-3.879l3.209-15.476z"/></g><defs><clipPath id="a"><path fill="#fff" d="M48.059 7.281h48v16h-48z"/></clipPath></defs></svg>